<svg width="1173" height="314" viewBox="0 0 1173 314" fill="none" xmlns="http://www.w3.org/2000/svg">
<path d="M51.2016 89.4364H74.2641V193H51.2016L27.4139 141.798V193H4.35141V89.4364H27.2689L51.2016 143.539V89.4364ZM116.472 107.857C109.219 107.857 108.349 113.224 108.349 141.363C108.349 170.083 109.219 174.579 116.472 174.579C123.724 174.579 124.594 170.083 124.594 141.363C124.594 113.224 123.724 107.857 116.472 107.857ZM116.472 87.6958C147.657 87.6958 149.978 103.651 149.978 141.363C149.978 180.381 147.657 194.741 116.472 194.741C85.2866 194.741 82.9658 180.381 82.9658 141.363C82.9658 103.651 85.2866 87.6958 116.472 87.6958ZM202.551 109.598V193H179.489V109.598H158.747V89.4364H223.293V109.598H202.551ZM842.029 193H818.967V89.4364H867.122V109.598H842.029V130.775H859.87V150.936H842.029V193ZM909.273 107.857C902.021 107.857 901.15 113.224 901.15 141.363C901.15 170.083 902.021 174.579 909.273 174.579C916.525 174.579 917.396 170.083 917.396 141.363C917.396 113.224 916.525 107.857 909.273 107.857ZM909.273 87.6958C940.458 87.6958 942.779 103.651 942.779 141.363C942.779 180.381 940.458 194.741 909.273 194.741C878.088 194.741 875.767 180.381 875.767 141.363C875.767 103.651 878.088 87.6958 909.273 87.6958ZM985.054 175.739C993.757 175.739 995.063 169.938 995.063 147.02V89.4364H1018.56V147.02C1018.56 187.488 1011.89 194.741 985.054 194.741C958.221 194.741 951.549 187.488 951.549 147.02V89.4364H975.046V147.02C975.046 169.938 976.352 175.739 985.054 175.739ZM1074.18 89.4364H1097.24V193H1074.18L1050.39 141.798V193H1027.33V89.4364H1050.25L1074.18 143.539V89.4364ZM1168.46 142.959V139.478C1168.46 181.106 1162.8 193 1133.36 193H1105.94V89.4364H1133.36C1162.8 89.4364 1168.46 101.33 1168.46 142.959ZM1145.4 139.478V142.959C1145.4 109.308 1143.08 108.147 1129.01 108.147V174.289C1143.08 174.289 1145.4 173.129 1145.4 139.478Z" fill="white"/>
<g filter="url(#filter0_d_174_40)">
<mask id="path-2-outside-1_174_40" maskUnits="userSpaceOnUse" x="288.331" y="19.1385" width="156.269" height="227.745" fill="black">
<rect fill="white" x="288.331" y="19.1385" width="156.269" height="227.745"/>
<path d="M305.226 195.184L302.386 153.841L357.972 30.901L409.293 26.4563L417.358 143.884L432.553 142.568L435.393 183.911L420.197 185.227L423.371 231.452L377.784 235.4L374.61 189.175L305.226 195.184ZM345.393 150.116L371.771 147.832L368.241 96.4393L345.393 150.116Z"/>
</mask>
<path d="M305.226 195.184L302.386 153.841L357.972 30.901L409.293 26.4563L417.358 143.884L432.553 142.568L435.393 183.911L420.197 185.227L423.371 231.452L377.784 235.4L374.61 189.175L305.226 195.184ZM345.393 150.116L371.771 147.832L368.241 96.4393L345.393 150.116Z" fill="url(#paint0_linear_174_40)"/>
<path d="M305.226 195.184L300.393 195.603L300.726 200.442L305.558 200.023L305.226 195.184ZM302.386 153.841L297.981 151.9L297.47 153.031L297.554 154.259L302.386 153.841ZM357.972 30.901L357.64 26.0621L354.765 26.3112L353.567 28.9605L357.972 30.901ZM409.293 26.4563L414.126 26.0378L413.793 21.1989L408.961 21.6174L409.293 26.4563ZM417.358 143.884L412.525 144.302L412.858 149.141L417.69 148.723L417.358 143.884ZM432.553 142.568L437.386 142.149L437.053 137.31L432.221 137.729L432.553 142.568ZM435.393 183.911L435.725 188.75L440.557 188.332L440.225 183.493L435.393 183.911ZM420.197 185.227L419.865 180.388L415.032 180.807L415.365 185.646L420.197 185.227ZM423.371 231.452L423.704 236.291L428.536 235.872L428.203 231.033L423.371 231.452ZM377.784 235.4L372.952 235.818L373.284 240.657L378.116 240.239L377.784 235.4ZM374.61 189.175L379.442 188.757L379.11 183.918L374.277 184.336L374.61 189.175ZM345.393 150.116L340.943 148.276L337.809 155.641L345.725 154.955L345.393 150.116ZM371.77 147.832L372.103 152.671L376.935 152.252L376.603 147.413L371.77 147.832ZM368.241 96.4393L373.073 96.0208L363.792 94.5996L368.241 96.4393ZM305.226 195.184L310.058 194.766L307.219 153.422L302.386 153.841L297.554 154.259L300.393 195.603L305.226 195.184ZM302.386 153.841L306.792 155.781L362.378 32.8416L357.972 30.901L353.567 28.9605L297.981 151.9L302.386 153.841ZM357.972 30.901L358.304 35.7399L409.626 31.2952L409.293 26.4563L408.961 21.6174L357.64 26.0621L357.972 30.901ZM409.293 26.4563L404.461 26.8748L412.525 144.302L417.358 143.884L422.19 143.465L414.126 26.0378L409.293 26.4563ZM417.358 143.884L417.69 148.723L432.886 147.406L432.553 142.568L432.221 137.729L417.025 139.045L417.358 143.884ZM432.553 142.568L427.721 142.986L430.56 184.33L435.393 183.911L440.225 183.493L437.386 142.149L432.553 142.568ZM435.393 183.911L435.06 179.072L419.865 180.388L420.197 185.227L420.529 190.066L435.725 188.75L435.393 183.911ZM420.197 185.227L415.365 185.646L418.539 231.87L423.371 231.452L428.203 231.033L425.029 184.809L420.197 185.227ZM423.371 231.452L423.039 226.613L377.452 230.561L377.784 235.4L378.116 240.239L423.704 236.291L423.371 231.452ZM377.784 235.4L382.616 234.981L379.442 188.757L374.61 189.175L369.778 189.594L372.952 235.818L377.784 235.4ZM374.61 189.175L374.277 184.336L304.893 190.346L305.226 195.184L305.558 200.023L374.942 194.014L374.61 189.175ZM345.393 150.116L345.725 154.955L372.103 152.671L371.77 147.832L371.438 142.993L345.061 145.277L345.393 150.116ZM371.77 147.832L376.603 147.413L373.073 96.0208L368.241 96.4393L363.409 96.8578L366.938 148.25L371.77 147.832ZM368.241 96.4393L363.792 94.5996L340.943 148.276L345.393 150.116L349.843 151.956L372.691 98.2791L368.241 96.4393Z" fill="black" mask="url(#path-2-outside-1_174_40)"/>
<mask id="path-4-outside-2_174_40" maskUnits="userSpaceOnUse" x="432.409" y="7.32142" width="148.971" height="231.489" fill="black">
<rect fill="white" x="432.409" y="7.32142" width="148.971" height="231.489"/>
<path d="M503.777 56.7062C492.289 57.438 491.393 73.9306 493.919 123.941C496.504 175.102 498.967 189.65 510.455 188.919C521.943 188.187 522.926 173.419 520.342 122.258C517.816 72.2474 515.265 55.9744 503.777 56.7062ZM501.759 16.7551C563.507 12.8216 567.118 50.0761 570.602 119.056C574.217 190.624 574.222 224.936 512.473 228.87C450.725 232.803 447.274 198.71 443.659 127.143C440.175 58.1627 440.01 20.6886 501.759 16.7551Z"/>
</mask>
<path d="M503.777 56.7062C492.289 57.438 491.393 73.9306 493.919 123.941C496.504 175.102 498.967 189.65 510.455 188.919C521.943 188.187 522.926 173.419 520.342 122.258C517.816 72.2474 515.265 55.9744 503.777 56.7062ZM501.759 16.7551C563.507 12.8216 567.118 50.0761 570.602 119.056C574.217 190.624 574.222 224.936 512.473 228.87C450.725 232.803 447.274 198.71 443.659 127.143C440.175 58.1627 440.01 20.6886 501.759 16.7551Z" fill="url(#paint1_linear_174_40)"/>
<path d="M503.777 56.7062L503.532 51.8621C499.259 52.1343 495.619 54.0156 493.046 57.7831C490.719 61.1905 489.488 65.8223 488.786 71.2869C487.375 82.2713 487.822 99.3653 489.079 124.25L493.919 123.941L498.76 123.633C497.491 98.5067 497.122 82.349 498.4 72.4015C499.042 67.4001 500.031 64.6459 501.024 63.1923C501.771 62.0987 502.551 61.644 504.022 61.5503L503.777 56.7062ZM493.919 123.941L489.079 124.25C490.364 149.694 491.634 166.613 494.134 177.077C495.379 182.288 497.078 186.606 499.797 189.575C502.804 192.859 506.605 194.024 510.7 193.763L510.455 188.919L510.211 184.074C508.561 184.179 507.746 183.8 506.98 182.963C505.925 181.811 504.693 179.432 503.563 174.702C501.313 165.284 500.059 149.349 498.76 123.633L493.919 123.941ZM510.455 188.919L510.7 193.763C514.795 193.502 518.454 191.862 521.111 188.217C523.514 184.922 524.767 180.416 525.48 175.08C526.91 164.366 526.468 147.394 525.182 121.95L520.342 122.258L515.501 122.567C516.8 148.282 517.159 164.275 515.872 173.918C515.226 178.761 514.241 181.281 513.309 182.56C512.631 183.489 511.86 183.969 510.211 184.074L510.455 188.919ZM520.342 122.258L525.182 121.95C523.925 97.0654 522.648 80.0243 520.14 69.2896C518.893 63.9491 517.203 59.5034 514.548 56.4134C511.612 52.9969 507.805 51.5899 503.532 51.8621L503.777 56.7062L504.022 61.5503C505.493 61.4566 506.313 61.8094 507.166 62.801C508.298 64.1193 509.558 66.7302 510.7 71.6179C512.971 81.3394 514.232 97.4402 515.501 122.567L520.342 122.258ZM501.759 16.7551L502.004 21.5992C517.01 20.6433 527.956 22.2329 536.069 25.8238C544.047 29.3551 549.637 34.9754 553.723 42.8464C557.88 50.8531 560.493 61.2204 562.257 74.137C564.018 87.0322 564.889 102.092 565.762 119.365L570.602 119.056L575.443 118.748C574.573 101.531 573.687 86.0661 571.861 72.6984C570.039 59.3518 567.236 47.7176 562.336 38.2798C557.366 28.7063 550.257 21.4392 540.083 16.936C530.044 12.4923 517.382 10.9001 501.514 11.911L501.759 16.7551ZM570.602 119.056L565.762 119.365C566.667 137.287 567.332 152.648 566.884 165.751C566.436 178.88 564.875 189.335 561.559 197.559C558.308 205.619 553.346 211.606 545.77 215.899C538.042 220.278 527.287 223.066 512.229 224.026L512.473 228.87L512.718 233.714C528.534 232.706 540.934 229.731 550.459 224.333C560.135 218.85 566.525 211.048 570.54 201.093C574.489 191.301 576.109 179.513 576.572 165.957C577.036 152.376 576.345 136.609 575.443 118.748L570.602 119.056ZM512.473 228.87L512.229 224.026C497.171 224.985 486.203 223.58 478.084 220.211C470.124 216.907 464.591 211.589 460.55 203.993C456.427 196.243 453.823 186.054 452.055 173.066C450.291 160.103 449.405 144.757 448.499 126.835L443.659 127.143L438.818 127.451C439.721 145.313 440.622 161.066 442.45 174.501C444.276 187.911 447.072 199.418 451.982 208.645C456.974 218.027 464.108 224.967 474.274 229.186C484.282 233.339 496.902 234.721 512.718 233.714L512.473 228.87ZM443.659 127.143L448.499 126.835C447.627 109.562 446.976 94.4881 447.427 81.4519C447.879 68.3942 449.431 57.7615 452.755 49.2783C456.023 40.9388 461.011 34.6447 468.583 30.1228C476.282 25.5246 486.997 22.5552 502.004 21.5992L501.759 16.7551L501.514 11.911C485.646 12.9218 473.226 16.1117 463.699 21.8019C454.043 27.5682 447.712 35.6915 443.738 45.8348C439.82 55.8343 438.207 67.7498 437.74 81.2422C437.272 94.7561 437.949 110.234 438.818 127.451L443.659 127.143Z" fill="black" mask="url(#path-4-outside-2_174_40)"/>
<mask id="path-6-outside-3_174_40" maskUnits="userSpaceOnUse" x="576.888" y="4.24022" width="148.971" height="221.762" fill="black">
<rect fill="white" x="576.888" y="4.24022" width="148.971" height="221.762"/>
<path d="M587.923 174.463L586.563 133.045L646.531 12.7595L698 10.627L701.865 128.267L717.105 127.636L718.466 169.055L703.226 169.686L704.748 215.994L659.029 217.889L657.508 171.58L587.923 174.463ZM629.693 131.258L656.147 130.162L654.455 78.676L629.693 131.258Z"/>
</mask>
<path d="M587.923 174.463L586.563 133.045L646.531 12.7595L698 10.627L701.865 128.267L717.105 127.636L718.466 169.055L703.226 169.686L704.748 215.994L659.029 217.889L657.508 171.58L587.923 174.463ZM629.693 131.258L656.147 130.162L654.455 78.676L629.693 131.258Z" fill="url(#paint2_linear_174_40)"/>
<rect fill="white" x="343.466" y="8.54269" width="0" height="0" viewBox="111 111 101 111"/>
<path d="M587.923 174.463L583.077 174.664L583.237 179.512L588.083 179.311L587.923 174.463ZM586.563 133.045L582.228 130.909L581.676 132.015L581.717 133.246L586.563 133.045ZM646.531 12.7595L646.372 7.91182L643.488 8.0313L642.196 10.6234L646.531 12.7595ZM698 10.627L702.847 10.4262L702.687 5.57848L697.841 5.77928L698 10.627ZM701.865 128.267L697.019 128.468L697.178 133.316L702.025 133.115L701.865 128.267ZM717.105 127.636L721.951 127.435L721.792 122.587L716.946 122.788L717.105 127.636ZM718.466 169.055L718.625 173.902L723.471 173.701L723.312 168.854L718.466 169.055ZM703.226 169.686L703.067 164.838L698.221 165.039L698.38 169.887L703.226 169.686ZM704.748 215.994L704.907 220.842L709.753 220.641L709.594 215.794L704.748 215.994ZM659.029 217.889L654.183 218.089L654.342 222.937L659.188 222.736L659.029 217.889ZM657.508 171.58L662.354 171.379L662.194 166.532L657.348 166.733L657.508 171.58ZM629.693 131.258L625.31 129.22L621.913 136.434L629.853 136.105L629.693 131.258ZM656.147 130.162L656.306 135.009L661.152 134.809L660.993 129.961L656.147 130.162ZM654.455 78.676L659.301 78.4752L650.072 76.6386L654.455 78.676ZM587.923 174.463L592.77 174.263L591.409 132.844L586.563 133.045L581.717 133.246L583.077 174.664L587.923 174.463ZM586.563 133.045L590.898 135.181L650.866 14.8956L646.531 12.7595L642.196 10.6234L582.228 130.909L586.563 133.045ZM646.531 12.7595L646.69 17.6072L698.16 15.4746L698 10.627L697.841 5.77928L646.372 7.91182L646.531 12.7595ZM698 10.627L693.154 10.8278L697.019 128.468L701.865 128.267L706.712 128.067L702.847 10.4262L698 10.627ZM701.865 128.267L702.025 133.115L717.264 132.484L717.105 127.636L716.946 122.788L701.706 123.42L701.865 128.267ZM717.105 127.636L712.259 127.837L713.619 169.255L718.466 169.055L723.312 168.854L721.951 127.435L717.105 127.636ZM718.466 169.055L718.306 164.207L703.067 164.838L703.226 169.686L703.385 174.534L718.625 173.902L718.466 169.055ZM703.226 169.686L698.38 169.887L699.901 216.195L704.748 215.994L709.594 215.794L708.072 169.485L703.226 169.686ZM704.748 215.994L704.588 211.147L658.87 213.041L659.029 217.889L659.188 222.736L704.907 220.842L704.748 215.994ZM659.029 217.889L663.875 217.688L662.354 171.379L657.508 171.58L652.661 171.781L654.183 218.089L659.029 217.889ZM657.508 171.58L657.348 166.733L587.764 169.616L587.923 174.463L588.083 179.311L657.667 176.428L657.508 171.58ZM629.693 131.258L629.853 136.105L656.306 135.009L656.147 130.162L655.988 125.314L629.534 126.41L629.693 131.258ZM656.147 130.162L660.993 129.961L659.301 78.4752L654.455 78.676L649.609 78.8768L651.301 130.362L656.147 130.162ZM654.455 78.676L650.072 76.6386L625.31 129.22L629.693 131.258L634.076 133.295L658.838 80.7134L654.455 78.676Z" fill="black" mask="url(#path-6-outside-3_174_40)"/>
</g>
<defs>
<filter id="filter0_d_174_40" x="297.47" y="5.57837" width="437.319" height="246.396" filterUnits="userSpaceOnUse" color-interpolation-filters="sRGB">
<feFlood flood-opacity="0" result="BackgroundImageFix"/>
<feColorMatrix in="SourceAlpha" type="matrix" values="0 0 0 0 0 0 0 0 0 0 0 0 0 0 0 0 0 0 127 0" result="hardAlpha"/>
<feOffset dx="11.3174" dy="11.3174"/>
<feComposite in2="hardAlpha" operator="out"/>
<feColorMatrix type="matrix" values="0 0 0 0 0 0 0 0 0 0 0 0 0 0 0 0 0 0 1 0"/>
<feBlend mode="normal" in2="BackgroundImageFix" result="effect1_dropShadow_174_40"/>
<feBlend mode="normal" in="SourceGraphic" in2="effect1_dropShadow_174_40" result="shape"/>
</filter>
<linearGradient id="paint0_linear_174_40" x1="354.376" y1="26.5472" x2="384.619" y2="232.614" gradientUnits="userSpaceOnUse">
<stop stop-color="#FFF7B3"/>
<stop offset="0.255" stop-color="#FEFFEB"/>
<stop offset="0.495" stop-color="#F4DD6A"/>
<stop offset="0.73" stop-color="#FFFEC2"/>
<stop offset="1" stop-color="#FFB726"/>
</linearGradient>
<linearGradient id="paint1_linear_174_40" x1="498.678" y1="15.7554" x2="524.249" y2="222.586" gradientUnits="userSpaceOnUse">
<stop stop-color="#FFF7B3"/>
<stop offset="0.255" stop-color="#FEFFEB"/>
<stop offset="0.495" stop-color="#F4DD6A"/>
<stop offset="0.73" stop-color="#FFFEC2"/>
<stop offset="1" stop-color="#FFB726"/>
</linearGradient>
<linearGradient id="paint2_linear_174_40" x1="639.333" y1="8.40803" x2="661.018" y2="215.74" gradientUnits="userSpaceOnUse">
<stop stop-color="#FFF7B3"/>
<stop offset="0.255" stop-color="#FEFFEB"/>
<stop offset="0.495" stop-color="#F4DD6A"/>
<stop offset="0.73" stop-color="#FFFEC2"/>
<stop offset="1" stop-color="#FFB726"/>
</linearGradient>
</defs>
</svg>
