<svg width="265" height="242" viewBox="0 0 265 242" fill="none" xmlns="http://www.w3.org/2000/svg">
<path d="M9.57336 241.52L35.3109 173.739L42.361 214.548L57.2636 229.911V233.19V240.763H45.9088L9.57336 241.52Z" fill="black"/>
<path d="M173.84 233.19L150.373 188.507L179.139 150.641L226.45 233.19H173.84Z" fill="black"/>
<path d="M103.818 100.657L84.1366 153.67L111.693 142.702L95.4264 168.816L80.9669 159.421L45.2702 205.51L43.9146 194.666C43.9146 194.666 40.6693 168.69 37.1367 168.816C2.01249 125.585 16.2601 67.7496 27.3626 44.2356C28.5737 26.0597 44.2686 30.8561 51.9647 35.5263C52.7216 30.8561 55.5225 19.7738 60.67 12.8064C65.8175 5.83901 68.8707 11.1655 69.7539 14.6997L60.67 38.177L79.1997 21.5305C75.9654 23.2109 71.9412 25.3004 79.2162 21.5157C79.342 21.4502 79.466 21.3879 79.5882 21.3286C86.8234 17.8208 87.9153 24.9929 87.5431 29.089L67.4829 47.6436C71.722 52.7934 70.7632 58.3724 69.7539 60.5182C17.6731 94.7495 30.1382 136.125 42.8808 152.534L82.6227 47.6436L119.715 46.1289C129.934 60.1395 142.425 87.7822 142.425 87.7822L153.716 108.813L131.123 143.606L103.818 100.657Z" fill="black"/>
<path d="M45.9088 240.763L9.57336 241.52L35.3109 173.739L42.361 214.548M45.9088 240.763V235.083M45.9088 240.763H57.2636V229.911L42.361 214.548M79.2162 21.5157C79.342 21.4502 79.466 21.3879 79.5882 21.3286M79.2162 21.5157C71.6463 25.4538 76.3101 23.0319 79.5882 21.3286M79.2162 21.5157L60.67 38.177L69.7539 14.6997C68.8707 11.1655 65.8175 5.83901 60.67 12.8064C55.5225 19.7738 52.7216 30.8561 51.9647 35.5263C44.2686 30.8561 28.5737 26.0597 27.3626 44.2356C16.2601 67.7496 2.01249 125.585 37.1367 168.816C40.6693 168.69 43.9146 194.666 43.9146 194.666L45.2702 205.51L80.9669 159.421L95.4264 168.816L111.693 142.702L84.1366 153.67L103.818 100.657L131.123 143.606L153.716 108.813L142.425 87.7822C142.425 87.7822 129.934 60.1395 119.715 46.1289L82.6226 47.6436L42.8808 152.534C30.1382 136.125 17.6731 94.7495 69.7539 60.5182C70.7632 58.3724 71.722 52.7934 67.4829 47.6436L87.5431 29.089C87.9153 24.9929 86.8234 17.8208 79.5882 21.3286M57.2636 233.19L45.9088 235.083M45.9088 235.083L42.361 214.548M150.373 188.507L173.84 233.19H226.45L179.139 150.641L150.373 188.507Z" stroke="black" stroke-width="0.733402"/>
<path d="M204.324 141.798L202.517 85.316L149.981 94.4444L163.561 107.055L134.46 149.252L115.544 143.432L96.1433 173.988L83.5328 164.773L39.3958 219.58L57.9219 240.676L70.1221 222.602L90.4557 196.021L99.041 203.251L119.909 175.443L140.28 188.539L188.298 127.426L204.324 141.798Z" fill="black" stroke="black" stroke-width="0.970044"/>
<path d="M156.609 81.6116L150.553 46.0171L157.366 43.7451L160.772 79.7183L156.609 81.6116Z" fill="black" stroke="black" stroke-width="0.733402"/>
<path d="M173.899 66.4235L175.622 44.9057L186.915 42.9873L177.684 66.2597L173.899 66.4235Z" fill="black"/>
<path d="M197.628 71.4718L213.503 28.5334L224.348 33.7821L204.549 73.6739L197.628 71.4718Z" fill="black"/>
<path d="M214.552 85.7494L211.764 82.6536L257.222 55.3111L260.775 67.3084L214.552 85.7494Z" fill="black"/>
<path d="M218.491 106.665L219.441 102.335L255.877 111.836L254.34 120.123L218.491 106.665Z" fill="black"/>
<path d="M216.112 121.778L217.124 118.875L217.471 118.145L253.389 141.965L247.295 150.091L216.112 121.778Z" fill="black"/>
<path d="M173.899 66.4235L175.622 44.9057L186.915 42.9873L177.684 66.2597L173.899 66.4235Z" stroke="black" stroke-width="0.733402"/>
<path d="M197.628 71.4718L213.503 28.5334L224.348 33.7821L204.549 73.6739L197.628 71.4718Z" stroke="black" stroke-width="0.733402"/>
<path d="M214.552 85.7494L211.764 82.6536L257.222 55.3111L260.775 67.3084L214.552 85.7494Z" stroke="black" stroke-width="0.733402"/>
<path d="M218.491 106.665L219.441 102.335L255.877 111.836L254.34 120.123L218.491 106.665Z" stroke="black" stroke-width="0.733402"/>
<path d="M216.112 121.778L217.124 118.875L217.471 118.145L253.389 141.965L247.295 150.091L216.112 121.778Z" stroke="black" stroke-width="0.733402"/>
<path d="M0.535767 232.483L26.2733 164.702L33.3234 205.51C33.2051 208.817 36.0199 218.69 48.226 231.726H36.8712L0.535767 232.483Z" fill="url(#paint0_linear_219_2)"/>
<path d="M164.802 224.152L141.335 179.47L170.101 141.603L217.413 224.152H164.802Z" fill="url(#paint1_linear_219_2)"/>
<rect fill="white" x="343.466" y="8.54269" width="0" height="0" viewBox="000 010 011 011"/>
<path d="M94.7807 91.6195L75.099 144.633L72.9835 150.52V152.02L64.4835 175.02L68.4835 179.47L80.9835 187.52C76.9835 200.52 65.8835 225.82 53.4835 223.02C41.0835 220.22 36.8162 204.156 36.2326 196.473L34.877 185.629C34.877 185.629 31.6317 159.653 28.0991 159.779C-7.02511 116.548 7.22249 58.7124 18.325 35.1984C19.5362 17.0224 35.231 21.8189 42.9271 26.4891C43.6841 21.8188 46.4849 10.7366 51.6324 3.76918C56.7799 -3.19823 59.8331 2.12831 60.7163 5.6625L51.6324 29.1398L70.1621 12.4933C66.9278 14.1737 62.9036 16.2632 70.1786 12.4784C70.3044 12.413 70.4284 12.3507 70.5506 12.2914C77.7858 8.78355 78.8777 15.9556 78.5055 20.0517L58.4453 38.6063C62.6844 43.7562 61.7256 49.3352 60.7163 51.481C8.63553 85.7123 21.1006 127.088 33.8432 143.497L73.5851 38.6063L110.677 37.0917C120.897 51.1023 133.387 78.7449 133.387 78.7449L144.678 99.7755L122.086 134.569L94.7807 91.6195Z" fill="url(#paint2_linear_219_2)"/>
<path d="M70.1786 12.4784C70.3044 12.413 70.4284 12.3507 70.5506 12.2914M70.1786 12.4784C62.6087 16.4165 67.2725 13.9946 70.5506 12.2914M70.1786 12.4784L51.6324 29.1398L60.7163 5.6625C59.8331 2.12831 56.7799 -3.19823 51.6324 3.76918C46.4849 10.7366 43.6841 21.8188 42.9271 26.4891C35.231 21.8189 19.5362 17.0224 18.325 35.1984C7.22249 58.7124 -7.02511 116.548 28.0991 159.779C31.6317 159.653 34.877 185.629 34.877 185.629L36.2326 196.473C36.8162 204.155 41.0835 220.22 53.4835 223.02C65.8835 225.82 76.9835 200.52 80.9835 187.52L68.4835 179.47L64.4835 175.02L72.9835 152.02V150.52L75.099 144.633L94.7807 91.6195L122.086 134.569L144.678 99.7755L133.387 78.7449C133.387 78.7449 120.897 51.1023 110.677 37.0917L73.5851 38.6063L33.8432 143.497C21.1006 127.088 8.63553 85.7123 60.7163 51.481C61.7256 49.3352 62.6844 43.7562 58.4453 38.6063L78.5055 20.0517C78.8777 15.9556 77.7858 8.78355 70.5506 12.2914M26.2733 164.702L0.535767 232.483L36.8712 231.726H48.226C36.0199 218.69 33.2051 208.817 33.3234 205.51L26.2733 164.702ZM141.335 179.47L164.802 224.152H217.413L170.101 141.603L141.335 179.47Z" stroke="black" stroke-width="0.733402"/>
<path d="M194.383 132.761L192.576 76.2789L140.04 85.4073L153.621 98.0179L124.519 140.215L105.603 134.395L86.2024 164.951L79.8969 160.343L45.2888 203.318L57.5099 219.807L60.1812 213.565L80.5148 186.984L89.1001 194.214L109.969 166.406L130.339 179.502L178.357 118.389L194.383 132.761Z" fill="url(#paint3_linear_219_2)"/>
<path d="M147.572 72.5745L141.516 36.98L148.329 34.708L151.735 70.6812L147.572 72.5745Z" fill="url(#paint4_linear_219_2)" stroke="black" stroke-width="0.733402"/>
<path d="M164.862 57.3864L166.585 35.8686L177.878 33.9502L168.647 57.2226L164.862 57.3864Z" fill="url(#paint5_linear_219_2)"/>
<path d="M188.591 62.4347L204.466 19.4963L215.311 24.745L195.512 64.6368L188.591 62.4347Z" fill="url(#paint6_linear_219_2)"/>
<path d="M205.515 76.7123L202.726 73.6165L248.185 46.2739L251.738 58.2713L205.515 76.7123Z" fill="url(#paint7_linear_219_2)"/>
<path d="M209.454 97.6276L210.404 93.2978L246.84 102.799L245.303 111.086L209.454 97.6276Z" fill="url(#paint8_linear_219_2)"/>
<path d="M207.075 112.741L208.087 109.838L208.434 109.108L244.352 132.928L238.258 141.054L207.075 112.741Z" fill="url(#paint9_linear_219_2)"/>
<defs>
<linearGradient id="paint0_linear_219_2" x1="97.9835" y1="37.0203" x2="114.828" y2="172.556" gradientUnits="userSpaceOnUse">
<stop stop-color="#FFF7B3"/>
<stop offset="0.255" stop-color="#FEFFEB"/>
<stop offset="0.495" stop-color="#F4DD6A"/>
<stop offset="0.73" stop-color="#FFFEC2"/>
<stop offset="1" stop-color="#FFB726"/>
</linearGradient>
<linearGradient id="paint1_linear_219_2" x1="97.9835" y1="37.0203" x2="114.828" y2="172.556" gradientUnits="userSpaceOnUse">
<stop stop-color="#FFF7B3"/>
<stop offset="0.255" stop-color="#FEFFEB"/>
<stop offset="0.495" stop-color="#F4DD6A"/>
<stop offset="0.73" stop-color="#FFFEC2"/>
<stop offset="1" stop-color="#FFB726"/>
</linearGradient>
<linearGradient id="paint2_linear_219_2" x1="97.9835" y1="37.0203" x2="114.828" y2="172.556" gradientUnits="userSpaceOnUse">
<stop stop-color="#FFF7B3"/>
<stop offset="0.255" stop-color="#FEFFEB"/>
<stop offset="0.495" stop-color="#F4DD6A"/>
<stop offset="0.73" stop-color="#FFFEC2"/>
<stop offset="1" stop-color="#FFB726"/>
</linearGradient>
<linearGradient id="paint3_linear_219_2" x1="122.322" y1="79.2099" x2="125.101" y2="183.383" gradientUnits="userSpaceOnUse">
<stop stop-color="#FFF7B3"/>
<stop offset="0.255" stop-color="#FEFFEB"/>
<stop offset="0.495" stop-color="#F4DD6A"/>
<stop offset="0.73" stop-color="#FFFEC2"/>
<stop offset="1" stop-color="#FFB726"/>
</linearGradient>
<linearGradient id="paint4_linear_219_2" x1="141.483" y1="-23.4797" x2="163.378" y2="76.9264" gradientUnits="userSpaceOnUse">
<stop stop-color="#FFF7B3"/>
<stop offset="0.255" stop-color="#FEFFEB"/>
<stop offset="0.495" stop-color="#F4DD6A"/>
<stop offset="0.73" stop-color="#FFFEC2"/>
<stop offset="1" stop-color="#FFB726"/>
</linearGradient>
<linearGradient id="paint5_linear_219_2" x1="257.984" y1="34.0203" x2="214.889" y2="114.79" gradientUnits="userSpaceOnUse">
<stop stop-color="#FFF7B3"/>
<stop offset="0.255" stop-color="#FEFFEB"/>
<stop offset="0.495" stop-color="#F4DD6A"/>
<stop offset="0.73" stop-color="#FFFEC2"/>
<stop offset="1" stop-color="#FFB726"/>
</linearGradient>
<linearGradient id="paint6_linear_219_2" x1="257.984" y1="34.0203" x2="214.889" y2="114.79" gradientUnits="userSpaceOnUse">
<stop stop-color="#FFF7B3"/>
<stop offset="0.255" stop-color="#FEFFEB"/>
<stop offset="0.495" stop-color="#F4DD6A"/>
<stop offset="0.73" stop-color="#FFFEC2"/>
<stop offset="1" stop-color="#FFB726"/>
</linearGradient>
<linearGradient id="paint7_linear_219_2" x1="257.984" y1="34.0203" x2="214.889" y2="114.79" gradientUnits="userSpaceOnUse">
<stop stop-color="#FFF7B3"/>
<stop offset="0.255" stop-color="#FEFFEB"/>
<stop offset="0.495" stop-color="#F4DD6A"/>
<stop offset="0.73" stop-color="#FFFEC2"/>
<stop offset="1" stop-color="#FFB726"/>
</linearGradient>
<linearGradient id="paint8_linear_219_2" x1="257.984" y1="34.0203" x2="214.889" y2="114.79" gradientUnits="userSpaceOnUse">
<stop stop-color="#FFF7B3"/>
<stop offset="0.255" stop-color="#FEFFEB"/>
<stop offset="0.495" stop-color="#F4DD6A"/>
<stop offset="0.73" stop-color="#FFFEC2"/>
<stop offset="1" stop-color="#FFB726"/>
</linearGradient>
<linearGradient id="paint9_linear_219_2" x1="257.984" y1="34.0203" x2="214.889" y2="114.79" gradientUnits="userSpaceOnUse">
<stop stop-color="#FFF7B3"/>
<stop offset="0.255" stop-color="#FEFFEB"/>
<stop offset="0.495" stop-color="#F4DD6A"/>
<stop offset="0.73" stop-color="#FFFEC2"/>
<stop offset="1" stop-color="#FFB726"/>
</linearGradient>
</defs>
</svg>
