<svg width="21012" height="6634" viewBox="0 0 21012 6634" fill="none" xmlns="http://www.w3.org/2000/svg">
<rect width="21012" height="6634" rx="573" fill="white"/>
<path d="M7596.75 4173.14L8341.61 2501.99H8723.58L9470.83 4173.14H9064.98L8453.81 2697.75H8606.6L7993.05 4173.14H7596.75ZM7969.18 3815.04L8071.83 3521.39H8931.29L9036.33 3815.04H7969.18ZM10157.8 4192.24C10036.8 4192.24 9927.79 4165.19 9830.71 4111.07C9733.62 4055.37 9656.43 3978.18 9599.13 3879.5C9543.43 3780.82 9515.57 3664.64 9515.57 3530.94C9515.57 3395.66 9543.43 3278.68 9599.13 3180C9656.43 3081.32 9733.62 3004.93 9830.71 2950.81C9927.79 2896.7 10036.8 2869.64 10157.8 2869.64C10266 2869.64 10360.7 2893.52 10441.9 2941.26C10523 2989.01 10585.9 3061.43 10630.5 3158.51C10675 3255.6 10697.3 3379.74 10697.3 3530.94C10697.3 3680.55 10675.8 3804.69 10632.9 3903.37C10589.9 4000.46 10527.8 4072.87 10446.6 4120.62C10367.1 4168.37 10270.8 4192.24 10157.8 4192.24ZM10222.2 3886.66C10282.7 3886.66 10337.6 3872.34 10387 3843.69C10436.3 3815.04 10475.3 3774.45 10503.9 3721.93C10534.2 3667.82 10549.3 3604.16 10549.3 3530.94C10549.3 3456.14 10534.2 3392.48 10503.9 3339.95C10475.3 3287.43 10436.3 3246.85 10387 3218.2C10337.6 3189.55 10282.7 3175.23 10222.2 3175.23C10160.2 3175.23 10104.5 3189.55 10055.1 3218.2C10005.8 3246.85 9965.99 3287.43 9935.75 3339.95C9907.1 3392.48 9892.78 3456.14 9892.78 3530.94C9892.78 3604.16 9907.1 3667.82 9935.75 3721.93C9965.99 3774.45 10005.8 3815.04 10055.1 3843.69C10104.5 3872.34 10160.2 3886.66 10222.2 3886.66ZM10558.9 4173.14V3910.53L10566 3528.56L10542.1 3148.96V2401.72H10914.6V4173.14H10558.9ZM11259.3 4173.14V2888.74H11615V3251.62L11564.8 3146.58C11603 3055.86 11664.3 2987.42 11748.7 2941.26C11833 2893.52 11935.7 2869.64 12056.6 2869.64V3213.42C12040.7 3211.83 12026.4 3211.04 12013.7 3211.04C12000.9 3209.44 11987.4 3208.65 11973.1 3208.65C11871.2 3208.65 11788.5 3238.09 11724.8 3296.98C11662.7 3354.28 11631.7 3444.2 11631.7 3566.75V4173.14H11259.3ZM12879.9 4192.24C12743.1 4192.24 12621.3 4163.59 12514.7 4106.3C12409.6 4049 12326.1 3971.01 12264 3872.34C12203.5 3772.07 12173.3 3658.27 12173.3 3530.94C12173.3 3402.02 12203.5 3288.23 12264 3189.55C12326.1 3089.28 12409.6 3011.29 12514.7 2955.59C12621.3 2898.29 12743.1 2869.64 12879.9 2869.64C13015.2 2869.64 13136.2 2898.29 13242.8 2955.59C13349.4 3011.29 13433 3088.48 13493.5 3187.16C13554 3285.84 13584.2 3400.43 13584.2 3530.94C13584.2 3658.27 13554 3772.07 13493.5 3872.34C13433 3971.01 13349.4 4049 13242.8 4106.3C13136.2 4163.59 13015.2 4192.24 12879.9 4192.24ZM12879.9 3886.66C12942 3886.66 12997.7 3872.34 13047 3843.69C13096.4 3815.04 13135.4 3774.45 13164 3721.93C13192.7 3667.82 13207 3604.16 13207 3530.94C13207 3456.14 13192.7 3392.48 13164 3339.95C13135.4 3287.43 13096.4 3246.85 13047 3218.2C12997.7 3189.55 12942 3175.23 12879.9 3175.23C12817.9 3175.23 12762.2 3189.55 12712.8 3218.2C12663.5 3246.85 12623.7 3287.43 12593.4 3339.95C12564.8 3392.48 12550.5 3456.14 12550.5 3530.94C12550.5 3604.16 12564.8 3667.82 12593.4 3721.93C12623.7 3774.45 12663.5 3815.04 12712.8 3843.69C12762.2 3872.34 12817.9 3886.66 12879.9 3886.66ZM13833.1 4173.14V2888.74H14205.6V4173.14H13833.1ZM14019.4 2709.69C13950.9 2709.69 13895.2 2689.79 13852.2 2650C13809.3 2610.22 13787.8 2560.88 13787.8 2501.99C13787.8 2443.1 13809.3 2393.76 13852.2 2353.97C13895.2 2314.18 13950.9 2294.29 14019.4 2294.29C14087.8 2294.29 14143.5 2313.39 14186.5 2351.58C14229.4 2388.19 14250.9 2435.94 14250.9 2494.83C14250.9 2556.9 14229.4 2608.62 14186.5 2650C14145.1 2689.79 14089.4 2709.69 14019.4 2709.69ZM15076.4 4192.24C14925.2 4192.24 14807.5 4154.05 14723.1 4077.65C14638.8 3999.66 14596.6 3884.27 14596.6 3731.48V2604.64H14969V3726.71C14969 3780.82 14983.3 3823 15012 3853.24C15040.6 3881.89 15079.6 3896.21 15129 3896.21C15187.8 3896.21 15238 3880.29 15279.4 3848.46L15379.6 4111.07C15341.4 4138.13 15295.3 4158.82 15241.2 4173.14C15188.6 4185.88 15133.7 4192.24 15076.4 4192.24ZM14398.4 3203.87V2917.39H15288.9V3203.87H14398.4ZM17033.5 4201.79C16796.4 4201.79 16611 4135.74 16477.3 4003.64C16343.6 3871.54 16276.7 3682.94 16276.7 3437.84V2501.99H16663.5V3423.51C16663.5 3582.67 16696.1 3697.26 16761.4 3767.29C16826.6 3837.32 16918.1 3872.34 17035.9 3872.34C17153.7 3872.34 17245.2 3837.32 17310.5 3767.29C17375.7 3697.26 17408.4 3582.67 17408.4 3423.51V2501.99H17790.3V3437.84C17790.3 3682.94 17723.5 3871.54 17589.8 4003.64C17456.1 4135.74 17270.7 4201.79 17033.5 4201.79ZM18172.5 4173.14V2501.99H18559.3V4173.14H18172.5Z" fill="black"/>
<g opacity="0.5" filter="url(#filter0_f_51_21)">
<path d="M4056.56 1772.85L4761.31 2179.74L3212.71 4862H2273.24L4056.56 1772.85Z" fill="url(#paint0_linear_51_21)"/>
<path d="M4546.44 1772.85L3841.69 2179.74L5390.3 4862H6329.76L4546.44 1772.85Z" fill="url(#paint1_linear_51_21)"/>
<path d="M4546.98 1773.33H4057.09L4301.58 1914.3L4546.98 1773.33Z" fill="url(#paint2_linear_51_21)"/>
</g>
<path d="M4056.56 1772.85L4761.31 2179.74L3212.71 4862H2273.24L4056.56 1772.85Z" fill="url(#paint3_linear_51_21)"/>
<path d="M4546.44 1772.85L3841.69 2179.74L5390.3 4862H6329.76L4546.44 1772.85Z" fill="url(#paint4_linear_51_21)"/>
<rect fill="white" x="343.466" y="8.54269" width="0" height="0" viewBox="101 110 100 101"/>
<path d="M4546.98 1773.33H4057.09L4301.58 1914.3L4546.98 1773.33Z" fill="url(#paint5_linear_51_21)"/>
<defs>
<filter id="filter0_f_51_21" x="2012.78" y="1512.39" width="4577.45" height="3610.07" filterUnits="userSpaceOnUse" color-interpolation-filters="sRGB">
<feFlood flood-opacity="0" result="BackgroundImageFix"/>
<feBlend mode="normal" in="SourceGraphic" in2="BackgroundImageFix" result="shape"/>
<feGaussianBlur stdDeviation="130.231" result="effect1_foregroundBlur_51_21"/>
</filter>
<linearGradient id="paint0_linear_51_21" x1="4301.36" y1="2462.6" x2="4301.5" y2="4862" gradientUnits="userSpaceOnUse">
<stop stop-color="#3BB9FF"/>
<stop offset="1" stop-color="#0400D3"/>
</linearGradient>
<linearGradient id="paint1_linear_51_21" x1="4301.36" y1="2462.6" x2="4301.5" y2="4862" gradientUnits="userSpaceOnUse">
<stop stop-color="#3BB9FF"/>
<stop offset="1" stop-color="#0400D3"/>
</linearGradient>
<linearGradient id="paint2_linear_51_21" x1="4301.36" y1="2462.6" x2="4301.5" y2="4862" gradientUnits="userSpaceOnUse">
<stop stop-color="#3BB9FF"/>
<stop offset="1" stop-color="#0400D3"/>
</linearGradient>
<linearGradient id="paint3_linear_51_21" x1="4301.36" y1="2462.6" x2="4301.5" y2="4862" gradientUnits="userSpaceOnUse">
<stop stop-color="#3BB9FF"/>
<stop offset="1" stop-color="#0400D3"/>
</linearGradient>
<linearGradient id="paint4_linear_51_21" x1="4301.36" y1="2462.6" x2="4301.5" y2="4862" gradientUnits="userSpaceOnUse">
<stop stop-color="#3BB9FF"/>
<stop offset="1" stop-color="#0400D3"/>
</linearGradient>
<linearGradient id="paint5_linear_51_21" x1="4301.36" y1="2462.6" x2="4301.5" y2="4862" gradientUnits="userSpaceOnUse">
<stop stop-color="#3BB9FF"/>
<stop offset="1" stop-color="#0400D3"/>
</linearGradient>
</defs>
</svg>
