<svg width="1060" height="481" viewBox="0 0 1060 481" fill="none" xmlns="http://www.w3.org/2000/svg">
<g filter="url(#filter0_d_8_102)">
<mask id="path-1-outside-1_8_102" maskUnits="userSpaceOnUse" x="14" y="90.0501" width="114" height="314" fill="black">
<rect fill="white" x="14" y="90.0501" width="114" height="314"/>
<path d="M18.1785 252.348V242.531C31.9942 237.805 42.9013 219.99 42.9013 173.453C42.9013 142.55 49.4455 94.1948 124.341 93.4677V129.461C124.341 129.461 86.1661 129.098 86.1661 159.274V195.267C86.1661 209.81 74.5318 245.44 52.3541 247.258C74.5318 249.076 86.1661 284.706 86.1661 299.248V335.242C86.1661 365.054 124.341 364.691 124.341 364.691V400.684C49.4455 400.321 42.9013 351.966 42.9013 321.062C42.9013 275.253 31.9942 257.801 18.1785 252.348Z"/>
</mask>
<path d="M18.1785 252.348V242.531C31.9942 237.805 42.9013 219.99 42.9013 173.453C42.9013 142.55 49.4455 94.1948 124.341 93.4677V129.461C124.341 129.461 86.1661 129.098 86.1661 159.274V195.267C86.1661 209.81 74.5318 245.44 52.3541 247.258C74.5318 249.076 86.1661 284.706 86.1661 299.248V335.242C86.1661 365.054 124.341 364.691 124.341 364.691V400.684C49.4455 400.321 42.9013 351.966 42.9013 321.062C42.9013 275.253 31.9942 257.801 18.1785 252.348Z" fill="url(#paint0_linear_8_102)"/>
<path d="M18.1785 252.348H14.9323V254.556L16.9866 255.367L18.1785 252.348ZM18.1785 242.531L17.1278 239.46L14.9323 240.211V242.531H18.1785ZM124.341 93.4677H127.587V90.1899L124.309 90.2217L124.341 93.4677ZM124.341 129.461L124.31 132.707L127.587 132.738V129.461H124.341ZM52.3541 247.258L52.0889 244.022V250.493L52.3541 247.258ZM124.341 364.691H127.587V361.414L124.31 361.445L124.341 364.691ZM124.341 400.684L124.325 403.93L127.587 403.946V400.684H124.341ZM21.4247 252.348V242.531H14.9323V252.348H21.4247ZM19.2292 245.603C27.2182 242.87 34.002 236.419 38.7242 224.903C43.4065 213.484 46.1474 196.916 46.1474 173.453H39.6551C39.6551 196.527 36.9425 212.135 32.7173 222.44C28.532 232.647 22.9544 237.467 17.1278 239.46L19.2292 245.603ZM46.1474 173.453C46.1474 158.116 47.8039 139.163 58.2127 123.98C68.4576 109.036 87.6785 97.07 124.372 96.7137L124.309 90.2217C86.1079 90.5926 64.609 103.168 52.8579 120.309C41.2707 137.211 39.6551 157.886 39.6551 173.453H46.1474ZM121.095 93.4677V129.461H127.587V93.4677H121.095ZM124.341 129.461C124.372 126.215 124.37 126.215 124.369 126.215C124.368 126.215 124.366 126.215 124.365 126.215C124.362 126.215 124.359 126.215 124.355 126.215C124.347 126.215 124.336 126.215 124.324 126.215C124.299 126.215 124.264 126.215 124.221 126.215C124.134 126.215 124.013 126.216 123.858 126.219C123.548 126.224 123.105 126.236 122.548 126.262C121.436 126.314 119.863 126.424 117.982 126.654C114.237 127.111 109.185 128.056 104.085 130.023C98.9942 131.986 93.6974 135.031 89.6578 139.782C85.5669 144.594 82.9199 150.98 82.9199 159.274H89.4122C89.4122 152.48 91.5371 147.595 94.604 143.988C97.7222 140.32 101.969 137.797 106.422 136.08C110.866 134.366 115.357 133.515 118.77 133.098C120.468 132.89 121.877 132.793 122.853 132.747C123.34 132.724 123.718 132.714 123.967 132.71C124.091 132.708 124.184 132.707 124.242 132.707C124.271 132.707 124.291 132.707 124.303 132.707C124.308 132.707 124.312 132.707 124.313 132.707C124.314 132.707 124.314 132.707 124.313 132.707C124.313 132.707 124.312 132.707 124.312 132.707C124.311 132.707 124.31 132.707 124.341 129.461ZM82.9199 159.274V195.267H89.4122V159.274H82.9199ZM82.9199 195.267C82.9199 201.932 80.1797 213.966 74.6951 224.54C69.1414 235.247 61.4265 243.257 52.0889 244.022L52.6193 250.493C65.4594 249.441 74.6505 238.727 80.4584 227.529C86.3354 216.198 89.4122 203.145 89.4122 195.267H82.9199ZM52.0889 250.493C61.4265 251.258 69.1414 259.268 74.6951 269.976C80.1797 280.55 82.9199 292.584 82.9199 299.248H89.4122C89.4122 291.37 86.3354 278.317 80.4584 266.987C74.6505 255.789 65.4594 245.075 52.6193 244.022L52.0889 250.493ZM82.9199 299.248V335.242H89.4122V299.248H82.9199ZM82.9199 335.242C82.9199 343.456 85.5743 349.779 89.6705 354.538C93.7132 359.235 99.0107 362.242 104.098 364.18C109.195 366.121 114.244 367.053 117.987 367.505C119.867 367.731 121.439 367.84 122.551 367.891C123.107 367.917 123.549 367.928 123.859 367.933C124.013 367.936 124.135 367.937 124.221 367.937C124.265 367.937 124.299 367.937 124.324 367.937C124.337 367.937 124.347 367.937 124.355 367.937C124.359 367.937 124.362 367.937 124.365 367.937C124.367 367.937 124.368 367.937 124.369 367.937C124.37 367.937 124.372 367.937 124.341 364.691C124.31 361.445 124.311 361.445 124.312 361.445C124.312 361.445 124.313 361.445 124.313 361.445C124.314 361.445 124.314 361.445 124.313 361.445C124.312 361.445 124.308 361.445 124.302 361.445C124.291 361.445 124.27 361.445 124.241 361.445C124.183 361.445 124.091 361.444 123.966 361.442C123.716 361.438 123.338 361.428 122.851 361.406C121.874 361.36 120.464 361.264 118.765 361.059C115.35 360.647 110.856 359.807 106.409 358.113C101.953 356.415 97.7064 353.922 94.5913 350.303C91.5298 346.746 89.4122 341.934 89.4122 335.242H82.9199ZM121.095 364.691V400.684H127.587V364.691H121.095ZM124.357 397.438C87.6628 397.26 68.4495 385.38 58.2103 370.487C47.8045 355.351 46.1474 336.401 46.1474 321.062H39.6551C39.6551 336.628 41.2701 357.306 52.8603 374.165C64.6171 391.266 86.1237 403.745 124.325 403.93L124.357 397.438ZM46.1474 321.062C46.1474 275.149 35.2682 255.604 19.3704 249.328L16.9866 255.367C28.7202 259.999 39.6551 275.356 39.6551 321.062H46.1474Z" fill="black" mask="url(#path-1-outside-1_8_102)"/>
</g>
<g filter="url(#filter1_d_8_102)">
<mask id="path-3-outside-2_8_102" maskUnits="userSpaceOnUse" x="931.724" y="90.0501" width="113" height="314" fill="black">
<rect fill="white" x="931.724" y="90.0501" width="113" height="314"/>
<path d="M1041.25 242.531V252.348C1027.43 257.801 1016.53 275.253 1016.53 321.062C1016.53 351.966 1009.98 400.321 935.085 400.684V364.691C935.085 364.691 973.26 364.691 973.26 335.242V299.248C973.26 284.706 984.895 249.076 1007.07 247.258C984.895 245.44 973.26 209.81 973.26 195.267V159.274C973.26 129.098 935.085 129.461 935.085 129.461V93.4677C1009.98 94.1948 1016.53 142.55 1016.53 173.453C1016.53 219.99 1027.43 237.805 1041.25 242.531Z"/>
</mask>
<path d="M1041.25 242.531V252.348C1027.43 257.801 1016.53 275.253 1016.53 321.062C1016.53 351.966 1009.98 400.321 935.085 400.684V364.691C935.085 364.691 973.26 364.691 973.26 335.242V299.248C973.26 284.706 984.895 249.076 1007.07 247.258C984.895 245.44 973.26 209.81 973.26 195.267V159.274C973.26 129.098 935.085 129.461 935.085 129.461V93.4677C1009.98 94.1948 1016.53 142.55 1016.53 173.453C1016.53 219.99 1027.43 237.805 1041.25 242.531Z" fill="url(#paint1_linear_8_102)"/>
<path d="M1041.25 242.531H1044.49V240.211L1042.3 239.46L1041.25 242.531ZM1041.25 252.348L1042.44 255.367L1044.49 254.556V252.348H1041.25ZM935.085 400.684H931.839V403.946L935.101 403.93L935.085 400.684ZM935.085 364.691V361.445H931.839V364.691H935.085ZM1007.07 247.258L1007.34 250.493V244.022L1007.07 247.258ZM935.085 129.461H931.839V132.738L935.116 132.707L935.085 129.461ZM935.085 93.4677L935.117 90.2217L931.839 90.1899V93.4677H935.085ZM1038 242.531V252.348H1044.49V242.531H1038ZM1040.06 249.328C1024.16 255.604 1013.28 275.149 1013.28 321.062H1019.77C1019.77 275.356 1030.71 259.999 1042.44 255.367L1040.06 249.328ZM1013.28 321.062C1013.28 336.401 1011.62 355.351 1001.22 370.487C990.977 385.38 971.764 397.26 935.07 397.438L935.101 403.93C973.303 403.745 994.809 391.266 1006.57 374.165C1018.16 357.306 1019.77 336.628 1019.77 321.062H1013.28ZM938.332 400.684V364.691H931.839V400.684H938.332ZM935.085 364.691C935.085 367.937 935.087 367.937 935.088 367.937C935.089 367.937 935.091 367.937 935.092 367.937C935.095 367.937 935.098 367.937 935.102 367.937C935.11 367.937 935.121 367.937 935.133 367.937C935.158 367.937 935.192 367.936 935.235 367.936C935.322 367.935 935.443 367.933 935.598 367.929C935.907 367.921 936.349 367.905 936.904 367.875C938.015 367.813 939.586 367.692 941.464 367.45C945.205 366.969 950.25 366.002 955.341 364.038C960.422 362.079 965.713 359.063 969.752 354.39C973.845 349.653 976.507 343.376 976.507 335.242H970.014C970.014 341.832 967.904 346.599 964.839 350.144C961.721 353.753 957.468 356.26 953.005 357.981C948.552 359.698 944.054 360.572 940.636 361.011C938.936 361.23 937.524 361.338 936.547 361.392C936.059 361.419 935.681 361.432 935.431 361.439C935.306 361.442 935.213 361.443 935.155 361.444C935.125 361.444 935.105 361.445 935.093 361.445C935.087 361.445 935.084 361.445 935.083 361.445C935.082 361.445 935.082 361.445 935.082 361.445C935.083 361.445 935.083 361.445 935.083 361.445C935.084 361.445 935.085 361.445 935.085 364.691ZM976.507 335.242V299.248H970.014V335.242H976.507ZM976.507 299.248C976.507 292.584 979.247 280.55 984.731 269.976C990.285 259.268 998 251.258 1007.34 250.493L1006.81 244.022C993.967 245.075 984.776 255.789 978.968 266.987C973.091 278.318 970.014 291.37 970.014 299.248H976.507ZM1007.34 244.022C998 243.257 990.285 235.247 984.731 224.54C979.247 213.966 976.507 201.932 976.507 195.267H970.014C970.014 203.145 973.091 216.198 978.968 227.529C984.776 238.727 993.967 249.441 1006.81 250.493L1007.34 244.022ZM976.507 195.267V159.274H970.014V195.267H976.507ZM976.507 159.274C976.507 150.98 973.86 144.594 969.769 139.782C965.729 135.031 960.432 131.986 955.341 130.023C950.242 128.056 945.189 127.111 941.444 126.654C939.563 126.424 937.99 126.314 936.878 126.262C936.321 126.236 935.879 126.224 935.569 126.219C935.414 126.216 935.292 126.215 935.205 126.215C935.162 126.215 935.128 126.215 935.103 126.215C935.09 126.215 935.08 126.215 935.072 126.215C935.068 126.215 935.064 126.215 935.061 126.215C935.06 126.215 935.058 126.215 935.058 126.215C935.056 126.215 935.055 126.215 935.085 129.461C935.116 132.707 935.115 132.707 935.114 132.707C935.114 132.707 935.113 132.707 935.113 132.707C935.113 132.707 935.113 132.707 935.113 132.707C935.114 132.707 935.118 132.707 935.124 132.707C935.135 132.707 935.156 132.707 935.185 132.707C935.243 132.707 935.335 132.708 935.46 132.71C935.709 132.714 936.086 132.724 936.574 132.747C937.549 132.793 938.959 132.89 940.656 133.098C944.069 133.515 948.56 134.366 953.005 136.08C957.457 137.797 961.704 140.32 964.822 143.988C967.889 147.595 970.014 152.48 970.014 159.274H976.507ZM938.332 129.461V93.4677H931.839V129.461H938.332ZM935.054 96.7137C971.748 97.07 990.969 109.036 1001.21 123.98C1011.62 139.163 1013.28 158.116 1013.28 173.453H1019.77C1019.77 157.886 1018.16 137.211 1006.57 120.309C994.817 103.168 973.318 90.5926 935.117 90.2217L935.054 96.7137ZM1013.28 173.453C1013.28 196.916 1016.02 213.484 1020.7 224.903C1025.42 236.419 1032.21 242.87 1040.2 245.603L1042.3 239.46C1036.47 237.467 1030.89 232.647 1026.71 222.44C1022.48 212.135 1019.77 196.527 1019.77 173.453H1013.28Z" fill="black" mask="url(#path-3-outside-2_8_102)"/>
</g>
<g filter="url(#filter2_d_8_102)">
<mask id="path-5-outside-3_8_102" maskUnits="userSpaceOnUse" x="343.466" y="8.5427" width="80.4696" height="119.033" fill="black">
<rect fill="white" x="343.466" y="8.5427" width="80.4696" height="119.033"/>
<path d="M386.318 101.106C392.651 100.557 393.664 94.2358 393.011 84.7242L418.052 82.5555C419.507 103.74 411.44 119.081 388.989 121.026C358.623 123.655 353.425 111.203 350.664 70.9952C347.992 32.0842 351.895 17.2489 381.685 14.6689C404.136 12.7245 414.203 26.4949 415.657 47.6797L390.616 49.8485C389.983 40.6251 388.242 34.2521 381.91 34.8005C374.714 35.4237 373.929 40.8557 375.849 68.814C377.808 97.3487 379.123 101.729 386.318 101.106Z"/>
</mask>
<path d="M386.318 101.106C392.651 100.557 393.664 94.2358 393.011 84.7242L418.052 82.5555C419.507 103.74 411.44 119.081 388.989 121.026C358.623 123.655 353.425 111.203 350.664 70.9952C347.992 32.0842 351.895 17.2489 381.685 14.6689C404.136 12.7245 414.203 26.4949 415.657 47.6797L390.616 49.8485C389.983 40.6251 388.242 34.2521 381.91 34.8005C374.714 35.4237 373.929 40.8557 375.849 68.814C377.808 97.3487 379.123 101.729 386.318 101.106Z" fill="url(#paint2_linear_8_102)"/>
<path d="M393.011 84.7242L392.844 82.2953L390.419 82.5054L390.586 84.9343L393.011 84.7242ZM418.052 82.5555L420.478 82.3454L420.311 79.9165L417.886 80.1266L418.052 82.5555ZM415.657 47.6797L415.824 50.1086L418.25 49.8985L418.083 47.4697L415.657 47.6797ZM390.616 49.8485L388.191 50.0585L388.357 52.4874L390.783 52.2774L390.616 49.8485ZM386.485 103.535C388.481 103.362 390.238 102.711 391.668 101.511C393.083 100.324 393.999 98.75 394.585 97.0251C395.72 93.68 395.764 89.2874 395.437 84.5141L390.586 84.9343C390.911 89.6726 390.775 93.1966 389.984 95.5272C389.606 96.6402 389.123 97.3443 388.587 97.794C388.067 98.2303 387.322 98.5755 386.152 98.6769L386.485 103.535ZM393.178 87.1531L418.219 84.9844L417.886 80.1266L392.844 82.2953L393.178 87.1531ZM415.627 82.7655C416.334 93.0654 414.692 101.558 410.494 107.643C406.364 113.628 399.487 117.673 388.823 118.597L389.156 123.454C400.942 122.434 409.325 117.836 414.477 110.369C419.561 103.001 421.225 93.2304 420.478 82.3454L415.627 82.7655ZM388.823 118.597C373.89 119.89 366.162 117.382 361.476 110.655C359.025 107.137 357.252 102.261 355.931 95.6273C354.613 89.0053 353.778 80.8155 353.089 70.7851L348.238 71.2052C348.93 81.2788 349.781 89.7236 351.162 96.6627C352.542 103.59 354.484 109.202 357.473 113.494C363.669 122.388 373.723 124.791 389.156 123.454L388.823 118.597ZM353.089 70.7851C352.423 61.0888 352.176 52.9961 352.62 46.2597C353.065 39.514 354.197 34.2916 356.179 30.2532C359.979 22.5093 367.315 18.3568 381.852 17.0978L381.519 12.24C366.265 13.561 356.754 18.1162 351.823 28.1626C349.44 33.0195 348.234 38.963 347.768 46.0231C347.302 53.0927 347.568 61.446 348.238 71.2052L353.089 70.7851ZM381.852 17.0978C392.517 16.1742 399.865 18.9871 404.763 24.1908C409.743 29.4804 412.525 37.59 413.232 47.8898L418.083 47.4697C417.335 36.5846 414.357 27.2166 408.327 20.8109C402.216 14.3193 393.305 11.2192 381.519 12.24L381.852 17.0978ZM415.491 45.2508L390.449 47.4196L390.783 52.2774L415.824 50.1086L415.491 45.2508ZM393.042 49.6384C392.724 45.0157 392.117 40.6943 390.588 37.5581C389.801 35.9448 388.709 34.5127 387.164 33.5478C385.595 32.5672 383.762 32.1968 381.743 32.3716L382.077 37.2294C383.224 37.1301 383.983 37.3506 384.541 37.699C385.124 38.063 385.693 38.6978 386.212 39.7621C387.294 41.9811 387.875 45.4579 388.191 50.0585L393.042 49.6384ZM381.743 32.3716C379.668 32.5514 377.612 33.1132 375.974 34.717C374.377 36.2808 373.532 38.4934 373.066 41.1798C372.148 46.4668 372.47 55.1482 373.423 69.024L378.274 68.6039C377.307 54.5214 377.062 46.5077 377.856 41.9334C378.246 39.6892 378.826 38.6795 379.34 38.1758C379.814 37.7122 380.554 37.3613 382.077 37.2294L381.743 32.3716ZM373.423 69.024C374.395 83.1724 375.221 91.7495 376.805 96.6786C377.613 99.1946 378.741 101.179 380.562 102.38C382.395 103.589 384.486 103.708 386.485 103.535L386.152 98.6769C384.553 98.8153 383.782 98.6205 383.283 98.2918C382.772 97.9548 382.1 97.1776 381.435 95.1096C380.073 90.8707 379.262 82.9902 378.274 68.6039L373.423 69.024Z" fill="black" mask="url(#path-5-outside-3_8_102)"/>
<mask id="path-7-outside-4_8_102" maskUnits="userSpaceOnUse" x="415.907" y="4.01235" width="78.5529" height="117.497" fill="black">
<rect fill="white" x="415.907" y="4.01235" width="78.5529" height="117.497"/>
<rect fill="white" x="343.466" y="8.54269" width="0" height="0" viewBox="001 110 011 100"/>
<path d="M453.706 29.4958C446.498 29.955 445.903 35.3481 447.317 63.3365C448.759 91.902 449.85 96.3193 457.058 95.8601C464.267 95.4009 464.906 90.8734 463.463 62.3079C462.049 34.3195 460.914 29.0366 453.706 29.4958ZM452.693 9.44223C483.688 7.46779 486.796 23.1906 488.691 60.7008C490.651 99.5095 489.066 113.939 458.071 115.914C427.077 117.888 424.049 103.752 422.088 64.9436C420.193 27.4333 421.698 11.4167 452.693 9.44223Z"/>
</mask>
<path d="M453.706 29.4958C446.498 29.955 445.903 35.3481 447.317 63.3365C448.759 91.902 449.85 96.3193 457.058 95.8601C464.267 95.4009 464.906 90.8734 463.463 62.3079C462.049 34.3195 460.914 29.0366 453.706 29.4958ZM452.693 9.44223C483.688 7.46779 486.796 23.1906 488.691 60.7008C490.651 99.5095 489.066 113.939 458.071 115.914C427.077 117.888 424.049 103.752 422.088 64.9436C420.193 27.4333 421.698 11.4167 452.693 9.44223Z" fill="url(#paint3_linear_8_102)"/>
<path d="M453.583 27.0643C451.508 27.1965 449.442 27.7099 447.795 29.2947C446.195 30.834 445.357 33.0359 444.883 35.6954C443.95 40.9384 444.186 49.6108 444.887 63.4913L449.746 63.1817C449.034 49.0737 448.86 41.0553 449.673 36.4899C450.073 34.2452 450.647 33.2634 451.141 32.7878C451.589 32.3576 452.3 32.0247 453.829 31.9273L453.583 27.0643ZM444.887 63.4913C445.602 77.65 446.237 86.2398 447.691 91.1971C448.432 93.7249 449.5 95.7429 451.288 96.9928C453.092 98.2535 455.18 98.4191 457.181 98.2916L456.936 93.4286C455.332 93.5307 454.582 93.3163 454.108 92.9852C453.619 92.6434 452.973 91.8578 452.36 89.768C451.106 85.49 450.474 77.5885 449.746 63.1817L444.887 63.4913ZM457.181 98.2916C459.182 98.1641 461.241 97.7343 462.906 96.2528C464.556 94.7838 465.415 92.643 465.897 90.0373C466.842 84.9273 466.608 76.3119 465.892 62.1532L461.033 62.4627C461.761 76.8695 461.928 84.8006 461.113 89.2104C460.714 91.3647 460.152 92.2273 459.7 92.629C459.263 93.0181 458.539 93.3264 456.936 93.4286L457.181 98.2916ZM465.892 62.1532C465.191 48.2727 464.552 39.626 463.097 34.5352C462.359 31.9529 461.304 29.8715 459.559 28.5452C457.763 27.1798 455.659 26.9321 453.583 27.0643L453.829 31.9273C455.358 31.8299 456.098 32.0703 456.586 32.441C457.125 32.8508 457.795 33.7533 458.418 35.9328C459.685 40.3658 460.32 48.3547 461.033 62.4627L465.892 62.1532ZM452.816 11.8738C460.391 11.3912 466.008 12.0117 470.237 13.6223C474.386 15.2027 477.321 17.7816 479.5 21.5149C481.724 25.3232 483.199 30.3998 484.222 36.9941C485.243 43.5758 485.788 51.4801 486.261 60.8556L491.121 60.546C490.647 51.1664 490.093 43.039 489.03 36.1847C487.968 29.3429 486.374 23.579 483.709 19.0146C481 14.3753 477.228 11.0493 472.018 9.06479C466.887 7.11047 460.493 6.50605 452.57 7.01071L452.816 11.8738ZM486.261 60.8556C486.751 70.5577 487.013 78.6242 486.663 85.3271C486.312 92.0445 485.354 97.185 483.534 101.12C481.756 104.966 479.115 107.75 475.144 109.734C471.088 111.76 465.549 112.998 457.949 113.482L458.194 118.345C466.091 117.842 472.373 116.536 477.271 114.088C482.253 111.599 485.697 107.98 487.945 103.12C490.15 98.3498 491.158 92.4829 491.522 85.5181C491.886 78.5387 491.611 70.2482 491.121 60.546L486.261 60.8556ZM457.949 113.482C450.348 113.966 444.72 113.44 440.486 111.942C436.341 110.475 433.436 108.044 431.282 104.449C429.078 100.77 427.608 95.7841 426.583 89.1543C425.56 82.5389 425.008 74.491 424.518 64.7888L419.659 65.0984C420.149 74.8006 420.71 83.0729 421.775 89.9612C422.837 96.8351 424.429 102.536 427.101 106.996C429.824 111.539 433.61 114.697 438.812 116.538C443.924 118.348 450.297 118.848 458.194 118.345L457.949 113.482ZM424.518 64.7888C424.044 55.4134 423.79 47.4905 424.142 40.8213C424.494 34.1394 425.448 28.9081 427.274 24.8419C429.064 20.8557 431.72 17.9207 435.683 15.8234C439.722 13.6862 445.241 12.3563 452.816 11.8738L452.57 7.01071C444.648 7.51538 438.356 8.928 433.454 11.5214C428.478 14.1548 425.065 17.9385 422.841 22.892C420.652 27.7656 419.648 33.695 419.283 40.6277C418.917 47.5731 419.185 55.7187 419.659 65.0984L424.518 64.7888Z" fill="black" mask="url(#path-7-outside-4_8_102)"/>
<mask id="path-9-outside-5_8_102" maskUnits="userSpaceOnUse" x="488.462" y="3.27913" width="72.52" height="111.798" fill="black">
<rect fill="white" x="488.462" y="3.27913" width="72.52" height="111.798"/>
<path d="M555.843 59.5532L555.729 56.0882C557.091 97.5241 551.851 109.596 522.552 110.81L495.273 111.94L491.886 8.85578L519.165 7.72554C548.464 6.51158 554.482 18.1172 555.843 59.5532ZM532.781 57.039L532.895 60.504C531.794 27.0087 529.447 25.9494 515.447 26.5295L517.61 92.365C531.61 91.785 533.881 90.5343 532.781 57.039Z"/>
</mask>
<path d="M555.843 59.5532L555.729 56.0882C557.091 97.5241 551.851 109.596 522.552 110.81L495.273 111.94L491.886 8.85578L519.165 7.72554C548.464 6.51158 554.482 18.1172 555.843 59.5532ZM532.781 57.039L532.895 60.504C531.794 27.0087 529.447 25.9494 515.447 26.5295L517.61 92.365C531.61 91.785 533.881 90.5343 532.781 57.039Z" fill="url(#paint4_linear_8_102)"/>
<path d="M495.273 111.94L492.841 112.041L492.921 114.475L495.353 114.374L495.273 111.94ZM491.886 8.85578L491.807 6.42247L489.374 6.52326L489.454 8.95657L491.886 8.85578ZM515.447 26.5295L515.367 24.0962L512.934 24.197L513.014 26.6303L515.447 26.5295ZM517.61 92.365L515.177 92.4658L515.257 94.8991L517.69 94.7984L517.61 92.365ZM558.276 59.4524L558.162 55.9874L553.297 56.189L553.411 59.654L558.276 59.4524ZM553.297 56.189C553.636 66.5135 553.559 74.9012 552.82 81.706C552.08 88.5213 550.693 93.5734 548.531 97.3312C544.384 104.542 536.889 107.779 522.472 108.377L522.632 113.243C537.513 112.627 547.288 109.221 552.745 99.7337C555.386 95.1422 556.884 89.3312 557.659 82.1912C558.436 75.0406 558.503 66.3809 558.162 55.9874L553.297 56.189ZM522.472 108.377L495.193 109.507L495.353 114.374L522.632 113.243L522.472 108.377ZM497.706 111.84L494.319 8.75499L489.454 8.95657L492.841 112.041L497.706 111.84ZM491.966 11.2891L519.245 10.1588L519.085 5.29223L491.807 6.42247L491.966 11.2891ZM519.245 10.1588C533.663 9.56147 541.349 12.1698 545.958 19.0179C548.36 22.5867 550.076 27.5102 551.261 34.2458C552.444 40.9709 553.071 49.3295 553.411 59.654L558.276 59.4524C557.934 49.0589 557.299 40.4283 556.055 33.3615C554.813 26.305 552.938 20.6337 550.003 16.2733C543.938 7.26319 533.966 4.67565 519.085 5.29223L519.245 10.1588ZM530.348 57.1398L530.462 60.6048L535.327 60.4032L535.213 56.9382L530.348 57.1398ZM535.327 60.4032C535.052 52.0224 534.696 45.5815 534.088 40.6638C533.486 35.7949 532.609 32.1457 531.129 29.5262C529.547 26.7263 527.338 25.2078 524.523 24.5174C521.926 23.8803 518.802 23.9539 515.367 24.0962L515.527 28.9628C519.092 28.8151 521.512 28.8036 523.326 29.2487C524.923 29.6404 525.995 30.3715 526.887 31.9508C527.881 33.7105 528.672 36.5703 529.257 41.3025C529.836 45.9858 530.187 52.238 530.462 60.6048L535.327 60.4032ZM513.014 26.6303L515.177 92.4658L520.042 92.2643L517.879 26.4287L513.014 26.6303ZM517.69 94.7984C521.124 94.656 524.245 94.4709 526.793 93.6206C529.555 92.6991 531.659 91.0019 533.053 88.0787C534.357 85.3438 534.992 81.632 535.273 76.7265C535.557 71.7719 535.489 65.3191 535.213 56.9382L530.348 57.1398C530.623 65.5066 530.684 71.7708 530.413 76.4894C530.14 81.2571 529.539 84.1746 528.663 86.0118C527.877 87.6606 526.856 88.4783 525.289 89.0012C523.509 89.5953 521.095 89.784 517.53 89.9317L517.69 94.7984Z" fill="black" mask="url(#path-9-outside-5_8_102)"/>
<mask id="path-11-outside-6_8_102" maskUnits="userSpaceOnUse" x="557.167" y="2.24185" width="55.8773" height="110.164" fill="black">
<rect fill="white" x="557.167" y="2.24185" width="55.8773" height="110.164"/>
<path d="M583.86 25.783L584.213 46.148L601.977 45.7594L602.325 65.8355L584.562 66.2241L584.952 88.7555L609.937 88.209L610.285 108.285L562.338 109.334L560.549 6.20915L608.496 5.16038L608.845 25.2365L583.86 25.783Z"/>
</mask>
<path d="M583.86 25.783L584.213 46.148L601.977 45.7594L602.325 65.8355L584.562 66.2241L584.952 88.7555L609.937 88.209L610.285 108.285L562.338 109.334L560.549 6.20915L608.496 5.16038L608.845 25.2365L583.86 25.783Z" fill="url(#paint5_linear_8_102)"/>
<path d="M583.86 25.783L583.818 23.3487L581.384 23.402L581.426 25.8362L583.86 25.783ZM584.213 46.148L581.779 46.2012L581.822 48.6355L584.256 48.5822L584.213 46.148ZM601.977 45.7594L604.411 45.7062L604.369 43.2719L601.935 43.3252L601.977 45.7594ZM602.325 65.8355L602.367 68.2698L604.801 68.2165L604.759 65.7823L602.325 65.8355ZM584.562 66.2241L584.519 63.7898L582.085 63.843L582.127 66.2773L584.562 66.2241ZM584.952 88.7555L582.518 88.8088L582.56 91.243L584.995 91.1898L584.952 88.7555ZM609.937 88.209L612.371 88.1558L612.329 85.7215L609.895 85.7748L609.937 88.209ZM610.285 108.285L610.327 110.719L612.761 110.666L612.719 108.232L610.285 108.285ZM562.338 109.334L559.904 109.387L559.946 111.821L562.38 111.768L562.338 109.334ZM560.549 6.20915L560.507 3.77489L558.073 3.82814L558.115 6.26239L560.549 6.20915ZM608.496 5.16038L610.931 5.10714L610.888 2.67288L608.454 2.72612L608.496 5.16038ZM608.845 25.2365L608.887 27.6707L611.321 27.6175L611.279 25.1832L608.845 25.2365ZM581.426 25.8362L581.779 46.2012L586.647 46.0947L586.294 25.7297L581.426 25.8362ZM584.256 48.5822L602.019 48.1937L601.935 43.3252L584.171 43.7137L584.256 48.5822ZM599.543 45.8126L599.891 65.8888L604.759 65.7823L604.411 45.7062L599.543 45.8126ZM602.283 63.4013L584.519 63.7898L584.604 68.6583L602.367 68.2698L602.283 63.4013ZM582.127 66.2773L582.518 88.8088L587.386 88.7023L586.996 66.1708L582.127 66.2773ZM584.995 91.1898L609.979 90.6433L609.895 85.7748L584.91 86.3213L584.995 91.1898ZM607.503 88.2623L607.851 108.338L612.719 108.232L612.371 88.1558L607.503 88.2623ZM610.243 105.851L562.296 106.9L562.38 111.768L610.327 110.719L610.243 105.851ZM564.772 109.281L562.983 6.15591L558.115 6.26239L559.904 109.387L564.772 109.281ZM560.591 8.6434L608.539 7.59463L608.454 2.72612L560.507 3.77489L560.591 8.6434ZM606.062 5.21362L606.411 25.2897L611.279 25.1832L610.931 5.10714L606.062 5.21362ZM608.802 22.8022L583.818 23.3487L583.902 28.2172L608.887 27.6707L608.802 22.8022Z" fill="black" mask="url(#path-11-outside-6_8_102)"/>
<mask id="path-13-outside-7_8_102" maskUnits="userSpaceOnUse" x="612.409" y="2.12306" width="26.2617" height="39.2199" fill="black">
<rect fill="white" x="612.409" y="2.12306" width="26.2617" height="39.2199"/>
<path d="M618.875 38.3744L615.762 5.17523L634.829 5.0133L632.164 38.2615L618.875 38.3744Z"/>
</mask>
<path d="M618.875 38.3744L615.762 5.17523L634.829 5.0133L632.164 38.2615L618.875 38.3744Z" fill="url(#paint6_linear_8_102)"/>
<path d="M618.875 38.3744L616.451 38.6059L616.659 40.8279L618.891 40.809L618.875 38.3744ZM615.762 5.17523L615.746 2.74066L613.09 2.76321L613.338 5.40673L615.762 5.17523ZM634.829 5.0133L637.256 5.2036L637.468 2.55618L634.813 2.57873L634.829 5.0133ZM632.164 38.2615L632.18 40.6961L634.412 40.6771L634.591 38.4518L632.164 38.2615ZM621.299 38.1429L618.186 4.94372L613.338 5.40673L616.451 38.6059L621.299 38.1429ZM615.778 7.60979L634.846 7.44786L634.813 2.57873L615.746 2.74066L615.778 7.60979ZM632.403 4.82299L629.737 38.0712L634.591 38.4518L637.256 5.2036L632.403 4.82299ZM632.148 35.827L618.858 35.9398L618.891 40.809L632.18 40.6961L632.148 35.827Z" fill="black" mask="url(#path-13-outside-7_8_102)"/>
<mask id="path-15-outside-8_8_102" maskUnits="userSpaceOnUse" x="641.919" y="0.00651459" width="66.5823" height="113.428" fill="black">
<rect fill="white" x="641.919" y="0.00651459" width="66.5823" height="113.428"/>
<path d="M675.907 23.43C672.729 23.4093 671.563 25.2797 671.521 33.5134C671.427 51.7144 704.368 50.7734 704.212 80.8194C704.123 98.1537 701.461 110.126 674.882 109.953C650.036 109.791 645.351 94.0149 645.46 72.7804L670.595 72.9442C670.547 82.1891 670.508 89.8451 674.986 89.8743C678.452 89.8969 679.049 86.2893 679.079 80.5112C679.177 61.4435 646.807 63.6884 646.967 32.7757C647.077 11.5412 653.187 3.20248 676.588 3.35493C697.678 3.49233 705.259 18.1319 705.149 39.3664L680.014 39.2026C680.079 26.6353 679.518 23.4536 675.907 23.43Z"/>
</mask>
<path d="M675.907 23.43C672.729 23.4093 671.563 25.2797 671.521 33.5134C671.427 51.7144 704.368 50.7734 704.212 80.8194C704.123 98.1537 701.461 110.126 674.882 109.953C650.036 109.791 645.351 94.0149 645.46 72.7804L670.595 72.9442C670.547 82.1891 670.508 89.8451 674.986 89.8743C678.452 89.8969 679.049 86.2893 679.079 80.5112C679.177 61.4435 646.807 63.6884 646.967 32.7757C647.077 11.5412 653.187 3.20248 676.588 3.35493C697.678 3.49233 705.259 18.1319 705.149 39.3664L680.014 39.2026C680.079 26.6353 679.518 23.4536 675.907 23.43Z" fill="url(#paint7_linear_8_102)"/>
<path d="M645.46 72.7804L645.473 70.3459L643.038 70.33L643.026 72.7646L645.46 72.7804ZM670.595 72.9442L673.029 72.9601L673.042 70.5255L670.607 70.5096L670.595 72.9442ZM705.149 39.3664L705.136 41.8009L707.571 41.8168L707.583 39.3822L705.149 39.3664ZM680.014 39.2026L677.58 39.1867L677.567 41.6213L680.002 41.6372L680.014 39.2026ZM675.919 20.9954C674.91 20.9889 673.783 21.1259 672.726 21.697C671.622 22.294 670.851 23.2252 670.33 24.3484C669.383 26.3861 669.107 29.4233 669.086 33.4976L673.955 33.5293C673.977 29.3699 674.305 27.3549 674.746 26.4042C674.919 26.0332 675.037 25.986 675.047 25.9809C675.104 25.9498 675.314 25.8608 675.894 25.8646L675.919 20.9954ZM669.086 33.4976C669.058 38.9271 671.549 42.8812 674.929 46.1161C678.176 49.2241 682.576 51.9498 686.487 54.7124C690.531 57.5697 694.343 60.6379 697.156 64.6969C699.931 68.6991 701.814 73.783 701.778 80.8036L706.647 80.8353C706.688 72.8328 704.512 66.7671 701.157 61.9265C697.841 57.1428 693.452 53.675 689.293 50.7366C684.999 47.7037 681.191 45.3741 678.293 42.6005C675.528 39.9539 673.936 37.2002 673.955 33.5293L669.086 33.4976ZM701.778 80.8036C701.733 89.5344 700.989 96.0469 697.559 100.455C694.258 104.696 687.917 107.603 674.894 107.519L674.869 112.388C688.426 112.476 696.705 109.484 701.403 103.449C705.97 97.5797 706.603 89.4388 706.647 80.8353L701.778 80.8036ZM674.894 107.519C663.035 107.441 656.552 103.686 652.859 97.9525C649.009 91.9749 647.84 83.354 647.895 72.7963L643.026 72.7646C642.971 83.4414 644.09 93.3259 648.767 100.586C653.6 108.09 661.884 112.303 674.869 112.388L674.894 107.519ZM645.448 75.215L670.582 75.3788L670.607 70.5096L645.473 70.3459L645.448 75.215ZM668.16 72.9283C668.137 77.4609 668.104 81.9453 668.696 85.2863C668.991 86.9538 669.485 88.6309 670.43 89.9398C671.472 91.3831 673.012 92.2961 674.973 92.3089L674.998 87.4397C674.72 87.4379 674.586 87.3829 674.377 87.0936C674.071 86.6699 673.739 85.8497 673.49 84.444C672.994 81.6385 673.005 77.6725 673.029 72.9601L668.16 72.9283ZM674.973 92.3089C676.287 92.3174 677.536 91.9724 678.585 91.152C679.601 90.3575 680.219 89.2813 680.611 88.1986C681.358 86.1311 681.499 83.3842 681.513 80.5271L676.644 80.4954C676.629 83.4163 676.456 85.3623 676.031 86.5374C675.837 87.076 675.654 87.2586 675.582 87.3147C675.543 87.345 675.417 87.4424 674.998 87.4397L674.973 92.3089ZM681.513 80.5271C681.542 74.9287 679.133 70.8965 675.782 67.6166C672.577 64.4802 668.237 61.8025 664.402 59.0966C660.432 56.2963 656.701 53.2884 653.945 49.2286C651.225 45.2227 649.364 40.0536 649.402 32.7915L644.533 32.7598C644.49 40.9541 646.616 47.0966 649.917 51.9599C653.183 56.7693 657.508 60.1881 661.598 63.0741C665.823 66.0545 669.547 68.3229 672.379 71.0944C675.064 73.7224 676.664 76.5599 676.644 80.4954L681.513 80.5271ZM649.402 32.7915C649.456 22.2503 651.035 15.712 654.813 11.7199C658.553 7.76787 665.032 5.71432 676.576 5.78952L676.601 0.920347C664.743 0.843097 656.467 2.88267 651.274 8.37052C646.119 13.8182 644.588 22.0665 644.533 32.7598L649.402 32.7915ZM676.576 5.78952C686.492 5.85412 692.856 9.28234 696.837 14.8616C700.924 20.5886 702.768 28.9528 702.714 39.3505L707.583 39.3822C707.639 28.5454 705.748 18.9726 700.799 12.0369C695.745 4.95339 687.774 0.99314 676.601 0.920347L676.576 5.78952ZM705.161 36.9318L680.027 36.768L680.002 41.6372L705.136 41.8009L705.161 36.9318ZM682.449 39.2185C682.481 33.0271 682.374 28.7564 681.703 26.0331C681.358 24.6328 680.787 23.2883 679.698 22.3195C678.55 21.2973 677.183 21.0037 675.919 20.9954L675.894 25.8646C676.173 25.8664 676.324 25.8989 676.393 25.9209C676.448 25.9381 676.458 25.9494 676.464 25.9548C676.494 25.9819 676.736 26.2227 676.975 27.1917C677.472 29.2069 677.613 32.8108 677.58 39.1867L682.449 39.2185Z" fill="black" mask="url(#path-15-outside-8_8_102)"/>
<mask id="path-17-outside-9_8_102" maskUnits="userSpaceOnUse" x="747.091" y="1.52392" width="76.658" height="115.969" fill="black">
<rect fill="white" x="747.091" y="1.52392" width="76.658" height="115.969"/>
<path d="M816.978 112.362L809.617 112.056L807.965 105.193C802.593 110.319 794.839 113.177 785.313 112.782C754.859 111.516 750.953 98.4868 752.28 58.206C753.564 19.2245 758.947 4.99081 788.823 6.23217C811.339 7.16768 819.951 22.1274 819.252 43.3507L794.138 42.3072C794.443 33.0672 793.358 26.5163 787.007 26.2524C779.791 25.9526 778.46 31.2465 777.538 59.2554C776.596 87.8418 777.459 92.3595 784.675 92.6593C790.737 92.9112 792.654 87.3525 792.949 78.4012L793.097 73.9255L784.87 73.5837L785.484 54.9592L818.824 56.3445L816.978 112.362Z"/>
</mask>
<path d="M816.978 112.362L809.617 112.056L807.965 105.193C802.593 110.319 794.839 113.177 785.313 112.782C754.859 111.516 750.953 98.4868 752.28 58.206C753.564 19.2245 758.947 4.99081 788.823 6.23217C811.339 7.16768 819.951 22.1274 819.252 43.3507L794.138 42.3072C794.443 33.0672 793.358 26.5163 787.007 26.2524C779.791 25.9526 778.46 31.2465 777.538 59.2554C776.596 87.8418 777.459 92.3595 784.675 92.6593C790.737 92.9112 792.654 87.3525 792.949 78.4012L793.097 73.9255L784.87 73.5837L785.484 54.9592L818.824 56.3445L816.978 112.362Z" fill="url(#paint8_linear_8_102)"/>
<path d="M816.978 112.362L816.898 114.796L819.33 114.897L819.411 112.463L816.978 112.362ZM809.617 112.056L807.251 112.608L807.686 114.413L809.537 114.49L809.617 112.056ZM807.965 105.193L810.33 104.642L809.335 100.506L806.277 103.424L807.965 105.193ZM819.252 43.3507L819.172 45.784L821.604 45.8851L821.684 43.4518L819.252 43.3507ZM794.138 42.3072L791.706 42.2062L791.626 44.6395L794.058 44.7405L794.138 42.3072ZM793.097 73.9255L795.529 74.0266L795.609 71.5933L793.177 71.4922L793.097 73.9255ZM784.87 73.5837L782.437 73.4826L782.357 75.9159L784.79 76.017L784.87 73.5837ZM785.484 54.9592L785.564 52.5259L783.131 52.4249L783.051 54.8582L785.484 54.9592ZM818.824 56.3445L821.256 56.4456L821.336 54.0123L818.904 53.9112L818.824 56.3445ZM817.058 109.929L809.697 109.623L809.537 114.49L816.898 114.796L817.058 109.929ZM811.983 111.505L810.33 104.642L805.599 105.744L807.251 112.608L811.983 111.505ZM806.277 103.424C801.448 108.032 794.365 110.721 785.393 110.348L785.233 115.215C795.313 115.634 803.738 112.606 809.652 106.962L806.277 103.424ZM785.393 110.348C770.417 109.726 762.989 106.249 759.012 98.9704C756.932 95.1635 755.663 90.0954 755.022 83.3393C754.382 76.595 754.381 68.3556 754.712 58.307L749.847 58.1049C749.515 68.1967 749.505 76.6914 750.176 83.7586C750.846 90.814 752.208 96.635 754.745 101.279C760.003 110.901 769.755 114.572 785.233 115.215L785.393 110.348ZM754.712 58.307C755.032 48.5932 755.606 40.5251 756.73 33.8924C757.856 27.2504 759.509 22.2088 761.889 18.4516C766.451 11.2467 774.164 8.05971 788.743 8.66547L788.903 3.79887C773.606 3.16327 763.69 6.4724 757.771 15.8194C754.909 20.3382 753.109 26.0864 751.931 33.038C750.751 39.9988 750.169 48.328 749.847 58.1049L754.712 58.307ZM788.743 8.66547C799.438 9.10986 806.458 12.8413 810.801 18.6342C815.215 24.5228 817.159 32.9311 816.819 43.2496L821.684 43.4518C822.044 32.547 820.031 22.8638 814.685 15.7328C809.268 8.50617 800.724 4.28999 788.903 3.79887L788.743 8.66547ZM819.332 40.9174L794.219 39.8739L794.058 44.7405L819.172 45.784L819.332 40.9174ZM796.571 42.4083C796.724 37.7772 796.558 33.4085 795.355 30.0988C794.736 28.3962 793.795 26.8346 792.358 25.6793C790.897 24.5051 789.112 23.9033 787.088 23.8191L786.927 28.6857C788.078 28.7335 788.81 29.0495 789.329 29.4666C789.872 29.9025 790.374 30.6056 790.782 31.7288C791.633 34.0705 791.858 37.5972 791.706 42.2062L796.571 42.4083ZM787.088 23.8191C785.007 23.7327 782.905 24.0281 781.115 25.4116C779.369 26.7607 778.305 28.85 777.57 31.4581C776.122 36.5913 775.563 45.2534 775.105 59.1543L779.97 59.3565C780.435 45.2485 781.003 37.2592 782.255 32.8181C782.87 30.6392 783.549 29.7106 784.111 29.2762C784.629 28.8762 785.4 28.6223 786.927 28.6857L787.088 23.8191ZM775.105 59.1543C774.638 73.3284 774.59 81.9512 775.666 87.0483C776.215 89.65 777.135 91.7647 778.823 93.1894C780.523 94.6241 782.589 95.0093 784.595 95.0926L784.755 90.226C783.152 90.1594 782.405 89.8674 781.943 89.4774C781.469 89.0774 780.879 88.2198 780.428 86.0814C779.503 81.6981 779.495 73.7689 779.97 59.3565L775.105 59.1543ZM784.595 95.0926C786.5 95.1718 788.244 94.7959 789.754 93.885C791.255 92.9791 792.349 91.6504 793.141 90.1105C794.675 87.1268 795.232 83.0355 795.382 78.5022L790.517 78.3001C790.371 82.7181 789.822 85.8818 788.809 87.8524C788.327 88.7896 787.786 89.3627 787.214 89.708C786.65 90.0483 785.881 90.2728 784.755 90.226L784.595 95.0926ZM795.382 78.5022L795.529 74.0266L790.664 73.8245L790.517 78.3001L795.382 78.5022ZM793.177 71.4922L784.95 71.1504L784.79 76.017L793.017 76.3588L793.177 71.4922ZM787.302 73.6848L787.916 55.0603L783.051 54.8582L782.437 73.4826L787.302 73.6848ZM785.403 57.3925L818.744 58.7778L818.904 53.9112L785.564 52.5259L785.403 57.3925ZM816.391 56.2434L814.546 112.261L819.411 112.463L821.256 56.4456L816.391 56.2434Z" fill="black" mask="url(#path-17-outside-9_8_102)"/>
<mask id="path-19-outside-10_8_102" maskUnits="userSpaceOnUse" x="817.641" y="4.62506" width="78.6122" height="117.545" fill="black">
<rect fill="white" x="817.641" y="4.62506" width="78.6122" height="117.545"/>
<path d="M858.847 30.1591C851.64 29.6949 850.502 34.9771 849.073 62.9647C847.614 91.5294 848.251 96.0574 855.458 96.5216C862.666 96.9858 863.759 92.5692 865.218 64.0045C866.647 36.0169 866.055 30.6233 858.847 30.1591ZM859.871 10.1061C890.865 12.1022 892.361 28.12 890.445 65.6292C888.464 104.437 885.428 118.571 854.434 116.575C823.441 114.579 821.864 100.148 823.846 61.34C825.761 23.8308 828.878 8.11009 859.871 10.1061Z"/>
</mask>
<path d="M858.847 30.1591C851.64 29.6949 850.502 34.9771 849.073 62.9647C847.614 91.5294 848.251 96.0574 855.458 96.5216C862.666 96.9858 863.759 92.5692 865.218 64.0045C866.647 36.0169 866.055 30.6233 858.847 30.1591ZM859.871 10.1061C890.865 12.1022 892.361 28.12 890.445 65.6292C888.464 104.437 885.428 118.571 854.434 116.575C823.441 114.579 821.864 100.148 823.846 61.34C825.761 23.8308 828.878 8.11009 859.871 10.1061Z" fill="url(#paint9_linear_8_102)"/>
<path d="M858.972 27.7277C856.896 27.594 854.792 27.8403 852.995 29.2045C851.249 30.5295 850.194 32.6102 849.454 35.192C847.996 40.2819 847.352 48.9282 846.643 62.8082L851.502 63.1212C852.223 49.0136 852.862 41.025 854.132 36.593C854.757 34.4138 855.426 33.5117 855.966 33.1023C856.454 32.732 857.195 32.4921 858.723 32.5906L858.972 27.7277ZM846.643 62.8082C845.92 76.9665 845.681 85.5819 846.624 90.6926C847.104 93.2987 847.961 95.44 849.611 96.9102C851.275 98.3929 853.333 98.8242 855.334 98.953L855.583 94.0901C853.979 93.9869 853.255 93.678 852.818 93.2886C852.367 92.8866 851.805 92.0236 851.408 89.869C850.595 85.4586 850.767 77.5276 851.502 63.1212L846.643 62.8082ZM855.334 98.953C857.335 99.0819 859.424 98.9177 861.228 97.6583C863.016 96.4096 864.086 94.3923 864.829 91.8651C866.285 86.9088 866.925 78.3193 867.648 64.161L862.789 63.8481C862.053 78.2544 861.417 86.1556 860.16 90.4327C859.546 92.5221 858.899 93.3073 858.41 93.6487C857.936 93.9795 857.186 94.1934 855.583 94.0901L855.334 98.953ZM867.648 64.161C868.357 50.2809 868.597 41.6087 867.667 36.365C867.195 33.7051 866.358 31.5026 864.759 29.9621C863.112 28.3762 861.047 27.8613 858.972 27.7277L858.723 32.5906C860.252 32.689 860.963 33.0225 861.41 33.453C861.905 33.9289 862.478 34.9111 862.877 37.1561C863.687 41.7222 863.509 49.7405 862.789 63.8481L867.648 64.161ZM859.747 12.5376C867.322 13.0254 872.84 14.3592 876.878 16.4992C880.84 18.5993 883.495 21.5362 885.282 25.5237C887.105 29.5912 888.057 34.8232 888.405 41.5053C888.753 48.1748 888.495 56.0976 888.016 65.4728L892.875 65.7857C893.354 56.4063 893.627 48.2608 893.264 41.3152C892.903 34.3821 891.902 28.452 889.716 23.5769C887.495 18.6217 884.084 14.8356 879.109 12.1987C874.209 9.60191 867.917 8.18488 859.996 7.67469L859.747 12.5376ZM888.016 65.4728C887.52 75.1746 886.963 83.2222 885.937 89.837C884.908 96.4661 883.436 101.451 881.23 105.128C879.073 108.722 876.167 111.151 872.022 112.615C867.787 114.11 862.159 114.633 854.559 114.143L854.31 119.006C862.207 119.515 868.58 119.019 873.694 117.213C878.896 115.375 882.684 112.219 885.409 107.678C888.083 103.221 889.679 97.5204 890.745 90.6472C891.814 83.7596 892.38 75.4876 892.875 65.7857L888.016 65.4728ZM854.559 114.143C846.958 113.654 841.42 112.412 837.365 110.383C833.396 108.396 830.756 105.61 828.98 101.763C827.163 97.8268 826.207 92.6856 825.86 85.9678C825.514 79.2647 825.78 71.1984 826.275 61.4965L821.416 61.1835C820.921 70.8855 820.64 79.1758 821.001 86.1555C821.361 93.1206 822.365 98.9883 824.569 103.76C826.813 108.621 830.255 112.243 835.236 114.736C840.132 117.186 846.414 118.497 854.31 119.006L854.559 114.143ZM826.275 61.4965C826.754 52.1213 827.303 44.2173 828.328 37.6362C829.355 31.0426 830.832 25.967 833.058 22.1603C835.239 18.4284 838.176 15.8516 842.326 14.274C846.555 12.6664 852.172 12.0498 859.747 12.5376L859.996 7.67469C852.074 7.1645 845.679 7.76448 840.547 9.71524C835.336 11.6961 831.562 15.0195 828.851 19.6569C826.183 24.2195 824.586 29.9823 823.52 36.8235C822.453 43.6771 821.895 51.8041 821.416 61.1835L826.275 61.4965Z" fill="black" mask="url(#path-19-outside-10_8_102)"/>
<mask id="path-21-outside-11_8_102" maskUnits="userSpaceOnUse" x="888.272" y="11.3844" width="78.231" height="114.893" fill="black">
<rect fill="white" x="888.272" y="11.3844" width="78.231" height="114.893"/>
<path d="M940.975 38.337L935.261 121.201L912.379 119.212L918.093 36.3473L897.513 34.5577L898.895 14.5262L962.935 20.095L961.554 40.1265L940.975 38.337Z"/>
</mask>
<path d="M940.975 38.337L935.261 121.201L912.379 119.212L918.093 36.3473L897.513 34.5577L898.895 14.5262L962.935 20.095L961.554 40.1265L940.975 38.337Z" fill="url(#paint10_linear_8_102)"/>
<path d="M940.975 38.337L941.142 35.9082L938.717 35.6972L938.549 38.1261L940.975 38.337ZM935.261 121.201L935.093 123.63L937.519 123.841L937.686 121.412L935.261 121.201ZM912.379 119.212L909.954 119.001L909.786 121.43L912.212 121.64L912.379 119.212ZM918.093 36.3473L920.518 36.5582L920.686 34.1293L918.26 33.9184L918.093 36.3473ZM897.513 34.5577L895.088 34.3468L894.921 36.7757L897.346 36.9866L897.513 34.5577ZM898.895 14.5262L899.062 12.0973L896.637 11.8864L896.469 14.3153L898.895 14.5262ZM962.935 20.095L965.361 20.3059L965.528 17.877L963.103 17.6661L962.935 20.095ZM961.554 40.1265L961.386 42.5554L963.812 42.7663L963.979 40.3374L961.554 40.1265ZM938.549 38.1261L932.835 120.99L937.686 121.412L943.4 38.5479L938.549 38.1261ZM935.428 118.773L912.547 116.783L912.212 121.64L935.093 123.63L935.428 118.773ZM914.805 119.423L920.518 36.5582L915.667 36.1363L909.954 119.001L914.805 119.423ZM918.26 33.9184L897.681 32.1289L897.346 36.9866L917.925 38.7761L918.26 33.9184ZM899.939 34.7686L901.32 14.7371L896.469 14.3153L895.088 34.3468L899.939 34.7686ZM898.727 16.955L962.768 22.5238L963.103 17.6661L899.062 12.0973L898.727 16.955ZM960.51 19.8841L959.128 39.9156L963.979 40.3374L965.361 20.3059L960.51 19.8841ZM961.721 37.6977L941.142 35.9082L940.807 40.7659L961.386 42.5554L961.721 37.6977Z" fill="black" mask="url(#path-21-outside-11_8_102)"/>
</g>
<g filter="url(#filter3_d_8_102)">
<mask id="path-23-outside-12_8_102" maskUnits="userSpaceOnUse" x="121.505" y="149.261" width="105.998" height="205.502" fill="black">
<rect fill="white" x="121.505" y="149.261" width="105.998" height="205.502"/>
<path d="M167.449 155.843L177.889 310.464L221.659 306.708L224.183 344.086L137.716 351.506L124.752 159.507L167.449 155.843Z"/>
</mask>
<path d="M167.449 155.843L177.889 310.464L221.659 306.708L224.183 344.086L137.716 351.506L124.752 159.507L167.449 155.843Z" fill="url(#paint11_linear_8_102)"/>
<path d="M167.449 155.843L169.874 155.635L169.71 153.206L167.285 153.414L167.449 155.843ZM177.889 310.464L175.463 310.672L175.627 313.101L178.053 312.893L177.889 310.464ZM221.659 306.708L224.085 306.5L223.921 304.071L221.495 304.279L221.659 306.708ZM224.183 344.086L224.347 346.515L226.773 346.307L226.609 343.878L224.183 344.086ZM137.716 351.506L135.29 351.714L135.454 354.143L137.88 353.935L137.716 351.506ZM124.752 159.507L124.588 157.078L122.163 157.286L122.327 159.715L124.752 159.507ZM165.023 156.051L175.463 310.672L180.314 310.256L169.874 155.635L165.023 156.051ZM178.053 312.893L221.823 309.137L221.495 304.279L177.725 308.035L178.053 312.893ZM219.234 306.916L221.758 344.294L226.609 343.878L224.085 306.5L219.234 306.916ZM224.019 341.657L137.552 349.077L137.88 353.935L224.347 346.515L224.019 341.657ZM140.142 351.298L127.178 159.299L122.327 159.715L135.29 351.714L140.142 351.298ZM124.916 161.936L167.613 158.272L167.285 153.414L124.588 157.078L124.916 161.936Z" fill="black" mask="url(#path-23-outside-12_8_102)"/>
</g>
<g filter="url(#filter4_d_8_102)">
<mask id="path-25-outside-13_8_102" maskUnits="userSpaceOnUse" x="444.957" y="138.282" width="128.766" height="200.246" fill="black">
<rect fill="white" x="444.957" y="138.282" width="128.766" height="200.246"/>
<path d="M529.987 179.051L532.168 334.009L489.322 334.78L487.141 179.822L448.606 180.515L448.078 143.056L567.995 140.899L568.522 178.358L529.987 179.051Z"/>
</mask>
<path d="M529.987 179.051L532.168 334.009L489.322 334.78L487.141 179.822L448.606 180.515L448.078 143.056L567.995 140.899L568.522 178.358L529.987 179.051Z" fill="url(#paint12_linear_8_102)"/>
<path d="M529.987 179.051L529.953 176.617L527.519 176.661L527.553 179.095L529.987 179.051ZM532.168 334.009L532.202 336.444L534.637 336.4L534.602 333.966L532.168 334.009ZM489.322 334.78L486.887 334.824L486.922 337.258L489.356 337.214L489.322 334.78ZM487.141 179.822L489.575 179.778L489.541 177.344L487.106 177.388L487.141 179.822ZM448.606 180.515L446.171 180.559L446.206 182.993L448.64 182.95L448.606 180.515ZM448.078 143.056L448.044 140.621L445.61 140.665L445.644 143.1L448.078 143.056ZM567.995 140.899L570.429 140.855L570.395 138.421L567.961 138.465L567.995 140.899ZM568.522 178.358L568.556 180.793L570.991 180.749L570.956 178.315L568.522 178.358ZM527.553 179.095L529.734 334.053L534.602 333.966L532.421 179.008L527.553 179.095ZM532.134 331.575L489.287 332.346L489.356 337.214L532.202 336.444L532.134 331.575ZM491.756 334.736L489.575 179.778L484.706 179.866L486.887 334.824L491.756 334.736ZM487.106 177.388L448.571 178.081L448.64 182.95L487.175 182.256L487.106 177.388ZM451.04 180.471L450.513 143.012L445.644 143.1L446.171 180.559L451.04 180.471ZM448.113 145.49L568.029 143.333L567.961 138.465L448.044 140.621L448.113 145.49ZM565.561 140.943L566.088 178.402L570.956 178.315L570.429 140.855L565.561 140.943ZM568.488 175.924L529.953 176.617L530.021 181.486L568.556 180.793L568.488 175.924Z" fill="black" mask="url(#path-25-outside-13_8_102)"/>
</g>
<g filter="url(#filter5_d_8_102)">
<mask id="path-27-outside-14_8_102" maskUnits="userSpaceOnUse" x="574.585" y="138.718" width="98.0389" height="199.258" fill="black">
<rect fill="white" x="574.585" y="138.718" width="98.0389" height="199.258"/>
<path d="M622.153 179.35L621.761 217.35L654.908 217.788L654.521 255.249L621.373 254.811L620.938 296.854L667.561 297.47L667.174 334.931L577.701 333.749L579.691 141.323L669.163 142.505L668.776 179.966L622.153 179.35Z"/>
</mask>
<path d="M622.153 179.35L621.761 217.35L654.908 217.788L654.521 255.249L621.373 254.811L620.938 296.854L667.561 297.47L667.174 334.931L577.701 333.749L579.691 141.323L669.163 142.505L668.776 179.966L622.153 179.35Z" fill="url(#paint13_linear_8_102)"/>
<path d="M622.153 179.35L622.179 176.915L619.744 176.883L619.719 179.318L622.153 179.35ZM621.761 217.35L619.326 217.318L619.301 219.752L621.735 219.784L621.761 217.35ZM654.908 217.788L657.343 217.82L657.368 215.386L654.934 215.353L654.908 217.788ZM654.521 255.249L654.496 257.684L656.93 257.716L656.955 255.281L654.521 255.249ZM621.373 254.811L621.398 252.377L618.964 252.344L618.939 254.779L621.373 254.811ZM620.938 296.854L618.504 296.822L618.479 299.256L620.913 299.288L620.938 296.854ZM667.561 297.47L669.996 297.502L670.021 295.067L667.586 295.035L667.561 297.47ZM667.174 334.931L667.149 337.365L669.583 337.398L669.608 334.963L667.174 334.931ZM577.701 333.749L575.267 333.716L575.242 336.151L577.676 336.183L577.701 333.749ZM579.691 141.323L579.716 138.888L577.282 138.856L577.257 141.29L579.691 141.323ZM669.163 142.505L671.598 142.537L671.623 140.102L669.189 140.07L669.163 142.505ZM668.776 179.966L668.751 182.4L671.185 182.433L671.211 179.998L668.776 179.966ZM619.719 179.318L619.326 217.318L624.195 217.382L624.588 179.382L619.719 179.318ZM621.735 219.784L654.883 220.222L654.934 215.353L621.786 214.915L621.735 219.784ZM652.474 217.756L652.087 255.217L656.955 255.281L657.343 217.82L652.474 217.756ZM654.546 252.815L621.398 252.377L621.348 257.246L654.496 257.684L654.546 252.815ZM618.939 254.779L618.504 296.822L623.373 296.886L623.808 254.843L618.939 254.779ZM620.913 299.288L667.536 299.904L667.586 295.035L620.964 294.419L620.913 299.288ZM665.127 297.438L664.739 334.899L669.608 334.963L669.996 297.502L665.127 297.438ZM667.199 332.496L577.726 331.314L577.676 336.183L667.149 337.365L667.199 332.496ZM580.136 333.781L582.125 141.355L577.257 141.29L575.267 333.716L580.136 333.781ZM579.666 143.757L669.138 144.939L669.189 140.07L579.716 138.888L579.666 143.757ZM666.729 142.473L666.342 179.934L671.211 179.998L671.598 142.537L666.729 142.473ZM668.801 177.531L622.179 176.915L622.128 181.784L668.751 182.4L668.801 177.531Z" fill="black" mask="url(#path-27-outside-14_8_102)"/>
</g>
<g filter="url(#filter6_d_8_102)">
<mask id="path-29-outside-15_8_102" maskUnits="userSpaceOnUse" x="674.632" y="140.16" width="142.938" height="204.085" fill="black">
<rect fill="white" x="674.632" y="140.16" width="142.938" height="204.085"/>
<path d="M771.665 146.839L814.474 148.796L807.594 341.11L764.785 339.153L724.032 242.055L720.63 337.134L677.821 335.177L684.702 142.863L727.241 144.808L768.071 247.305L771.665 146.839Z"/>
</mask>
<path d="M771.665 146.839L814.474 148.796L807.594 341.11L764.785 339.153L724.032 242.055L720.63 337.134L677.821 335.177L684.702 142.863L727.241 144.808L768.071 247.305L771.665 146.839Z" fill="url(#paint14_linear_8_102)"/>
<path d="M771.665 146.839L771.753 144.406L769.32 144.295L769.233 146.728L771.665 146.839ZM814.474 148.796L816.906 148.908L816.993 146.474L814.561 146.363L814.474 148.796ZM807.594 341.11L807.507 343.543L809.939 343.654L810.026 341.221L807.594 341.11ZM764.785 339.153L762.543 340.077L763.146 341.515L764.698 341.586L764.785 339.153ZM724.032 242.055L726.274 241.13L721.6 241.943L724.032 242.055ZM720.63 337.134L720.543 339.567L722.975 339.678L723.062 337.245L720.63 337.134ZM677.821 335.177L675.389 335.065L675.302 337.498L677.734 337.61L677.821 335.177ZM684.702 142.863L684.789 140.43L682.357 140.319L682.27 142.752L684.702 142.863ZM727.241 144.808L729.501 143.926L728.912 142.447L727.328 142.375L727.241 144.808ZM768.071 247.305L765.812 248.188L770.503 247.417L768.071 247.305ZM771.578 149.272L814.387 151.229L814.561 146.363L771.753 144.406L771.578 149.272ZM812.042 148.685L805.162 340.999L810.026 341.221L816.906 148.908L812.042 148.685ZM807.681 338.677L764.872 336.719L764.698 341.586L807.507 343.543L807.681 338.677ZM767.027 338.228L726.274 241.13L721.789 242.979L762.543 340.077L767.027 338.228ZM721.6 241.943L718.198 337.023L723.062 337.245L726.464 242.166L721.6 241.943ZM720.717 334.701L677.908 332.744L677.734 337.61L720.543 339.567L720.717 334.701ZM680.253 335.288L687.134 142.974L682.27 142.752L675.389 335.065L680.253 335.288ZM684.615 145.296L727.154 147.241L727.328 142.375L684.789 140.43L684.615 145.296ZM724.982 145.691L765.812 248.188L770.33 246.423L729.501 143.926L724.982 145.691ZM770.503 247.417L774.098 146.95L769.233 146.728L765.639 247.194L770.503 247.417Z" fill="black" mask="url(#path-29-outside-15_8_102)"/>
</g>
<g filter="url(#filter7_d_8_102)">
<mask id="path-31-outside-16_8_102" maskUnits="userSpaceOnUse" x="810.662" y="147.119" width="138.256" height="207.89" fill="black">
<rect fill="white" x="810.662" y="147.119" width="138.256" height="207.89"/>
<path d="M904.975 193.967L895.052 348.622L852.342 345.12L862.265 190.465L823.852 187.316L826.251 149.929L945.786 159.73L943.387 197.116L904.975 193.967Z"/>
</mask>
<path d="M904.975 193.967L895.052 348.622L852.342 345.12L862.265 190.465L823.852 187.316L826.251 149.929L945.786 159.73L943.387 197.116L904.975 193.967Z" fill="url(#paint15_linear_8_102)"/>
<path d="M904.975 193.967L905.131 191.537L902.704 191.338L902.548 193.768L904.975 193.967ZM895.052 348.622L894.896 351.052L897.323 351.251L897.479 348.821L895.052 348.622ZM852.342 345.12L849.915 344.921L849.76 347.351L852.186 347.55L852.342 345.12ZM862.265 190.465L864.691 190.664L864.847 188.234L862.421 188.035L862.265 190.465ZM823.852 187.316L821.426 187.117L821.27 189.546L823.697 189.745L823.852 187.316ZM826.251 149.929L826.407 147.5L823.981 147.301L823.825 149.731L826.251 149.929ZM945.786 159.73L948.212 159.929L948.368 157.499L945.942 157.3L945.786 159.73ZM943.387 197.116L943.231 199.546L945.658 199.745L945.814 197.315L943.387 197.116ZM902.548 193.768L892.626 348.423L897.479 348.821L907.401 194.166L902.548 193.768ZM895.208 346.193L852.498 342.691L852.186 347.55L894.896 351.052L895.208 346.193ZM854.768 345.319L864.691 190.664L859.838 190.266L849.915 344.921L854.768 345.319ZM862.421 188.035L824.008 184.886L823.697 189.745L862.109 192.895L862.421 188.035ZM826.279 187.515L828.678 150.128L823.825 149.731L821.426 187.117L826.279 187.515ZM826.095 152.359L945.63 162.16L945.942 157.3L826.407 147.5L826.095 152.359ZM943.359 159.531L940.961 196.917L945.814 197.315L948.212 159.929L943.359 159.531ZM943.543 194.687L905.131 191.537L904.819 196.396L943.231 199.546L943.543 194.687Z" fill="black" mask="url(#path-31-outside-16_8_102)"/>
</g>
<g filter="url(#filter8_d_8_102)">
<path fill-rule="evenodd" clip-rule="evenodd" d="M344.639 175.587C348.453 177.364 350.105 181.897 348.328 185.711L330.124 224.793C328.347 228.607 323.814 230.259 320 228.482C316.186 226.706 314.534 222.173 316.31 218.359L334.515 179.277C336.292 175.462 340.824 173.811 344.639 175.587Z" fill="url(#paint16_linear_8_102)"/>
<path fill-rule="evenodd" clip-rule="evenodd" d="M346.719 176.179C343.25 178.561 342.369 183.304 344.751 186.773L369.155 222.315C371.537 225.784 376.28 226.665 379.749 224.283C383.217 221.901 384.099 217.158 381.717 213.689L357.312 178.147C354.931 174.678 350.188 173.797 346.719 176.179Z" fill="url(#paint17_linear_8_102)"/>
<path fill-rule="evenodd" clip-rule="evenodd" d="M306.701 252.556C310.509 254.347 312.144 258.885 310.352 262.693L287.897 310.43C286.106 314.238 281.568 315.873 277.76 314.082C273.952 312.291 272.318 307.752 274.109 303.944L296.564 256.207C298.355 252.399 302.893 250.764 306.701 252.556Z" fill="url(#paint18_linear_8_102)"/>
<path fill-rule="evenodd" clip-rule="evenodd" d="M396.838 245.832C393.378 248.226 392.514 252.973 394.909 256.433L424.934 299.81C427.329 303.27 432.075 304.133 435.535 301.738C438.995 299.344 439.858 294.597 437.463 291.137L407.439 247.76C405.044 244.3 400.297 243.437 396.838 245.832Z" fill="url(#paint19_linear_8_102)"/>
<path d="M366.492 159.801C367.502 171.962 358.463 182.639 346.302 183.649C334.141 184.66 323.463 175.62 322.453 163.459C321.443 151.298 330.482 140.621 342.643 139.611C354.804 138.6 365.481 147.64 366.492 159.801Z" fill="url(#paint20_linear_8_102)"/>
<path d="M410.164 229.949C411.174 242.11 402.135 252.788 389.974 253.798C377.813 254.808 367.135 245.769 366.125 233.608C365.115 221.447 374.154 210.77 386.315 209.759C398.476 208.749 409.153 217.788 410.164 229.949Z" fill="url(#paint21_linear_8_102)"/>
<path d="M461.015 308.294C462.026 320.455 452.986 331.132 440.825 332.143C428.664 333.153 417.987 324.114 416.976 311.953C415.966 299.792 425.006 289.114 437.167 288.104C449.328 287.094 460.005 296.133 461.015 308.294Z" fill="url(#paint22_linear_8_102)"/>
<path d="M334.994 236.194C336.004 248.355 326.965 259.033 314.804 260.043C302.643 261.053 291.966 252.014 290.955 239.853C289.945 227.692 298.984 217.015 311.145 216.004C323.306 214.994 333.984 224.033 334.994 236.194Z" fill="url(#paint23_linear_8_102)"/>
<path d="M297.768 321.856C298.778 334.017 289.739 344.695 277.578 345.705C265.417 346.715 254.74 337.676 253.729 325.515C252.719 313.354 261.758 302.677 273.919 301.666C286.08 300.656 296.758 309.695 297.768 321.856Z" fill="url(#paint24_linear_8_102)"/>
<path d="M342.519 138.116C355.505 137.037 366.908 146.69 367.987 159.677C368.632 167.441 365.439 174.638 359.993 179.401L380.603 209.416C382.374 208.821 384.245 208.426 386.19 208.264C399.177 207.185 410.58 216.839 411.659 229.825C412.138 235.594 410.498 241.048 407.391 245.426C407.86 245.864 408.292 246.357 408.672 246.907L436.211 286.694C436.486 286.661 436.763 286.632 437.042 286.609C450.028 285.53 461.431 295.183 462.51 308.169C463.589 321.156 453.936 332.559 440.949 333.638C427.963 334.716 416.561 325.063 415.482 312.076C414.975 305.98 416.834 300.233 420.292 295.739L393.676 257.286C393.169 256.553 392.786 255.771 392.518 254.966C391.726 255.115 390.918 255.224 390.097 255.293C377.111 256.371 365.709 246.719 364.63 233.732C364.271 229.408 365.102 225.259 366.85 221.609L346.837 192.462L332.072 224.161C334.527 227.537 336.118 231.606 336.489 236.07C337.568 249.057 327.915 260.458 314.929 261.538C314.051 261.611 313.179 261.633 312.318 261.61C312.176 262.192 311.975 262.769 311.71 263.332L291.558 306.172C295.856 310.05 298.746 315.507 299.263 321.732C300.342 334.718 290.689 346.121 277.703 347.2C264.716 348.279 253.313 338.625 252.234 325.639C251.156 312.652 260.809 301.25 273.796 300.171C273.944 300.159 274.092 300.149 274.24 300.139L295.207 255.568C295.413 255.128 295.651 254.713 295.916 254.323C292.312 250.556 289.926 245.577 289.461 239.977C288.382 226.991 298.035 215.588 311.022 214.509C312.845 214.358 314.637 214.418 316.374 214.669L331.807 181.537C325.803 177.712 321.593 171.226 320.958 163.584C319.879 150.597 329.532 139.195 342.519 138.116Z" stroke="black" stroke-width="3"/>
</g>
<defs>
<filter id="filter0_d_8_102" x="14.9324" y="90.1899" width="120.77" height="318.626" filterUnits="userSpaceOnUse" color-interpolation-filters="sRGB">
<feFlood flood-opacity="0" result="BackgroundImageFix"/>
<feColorMatrix in="SourceAlpha" type="matrix" values="0 0 0 0 0 0 0 0 0 0 0 0 0 0 0 0 0 0 127 0" result="hardAlpha"/>
<feOffset dx="8.1154" dy="4.86924"/>
<feComposite in2="hardAlpha" operator="out"/>
<feColorMatrix type="matrix" values="0 0 0 0 0 0 0 0 0 0 0 0 0 0 0 0 0 0 1 0"/>
<feBlend mode="normal" in2="BackgroundImageFix" result="effect1_dropShadow_8_102"/>
<feBlend mode="normal" in="SourceGraphic" in2="effect1_dropShadow_8_102" result="shape"/>
</filter>
<filter id="filter1_d_8_102" x="931.839" y="90.1899" width="120.77" height="318.626" filterUnits="userSpaceOnUse" color-interpolation-filters="sRGB">
<feFlood flood-opacity="0" result="BackgroundImageFix"/>
<feColorMatrix in="SourceAlpha" type="matrix" values="0 0 0 0 0 0 0 0 0 0 0 0 0 0 0 0 0 0 127 0" result="hardAlpha"/>
<feOffset dx="8.1154" dy="4.86924"/>
<feComposite in2="hardAlpha" operator="out"/>
<feColorMatrix type="matrix" values="0 0 0 0 0 0 0 0 0 0 0 0 0 0 0 0 0 0 1 0"/>
<feBlend mode="normal" in2="BackgroundImageFix" result="effect1_dropShadow_8_102"/>
<feBlend mode="normal" in="SourceGraphic" in2="effect1_dropShadow_8_102" result="shape"/>
</filter>
<filter id="filter2_d_8_102" x="347.533" y="0.91824" width="623.675" height="128.604" filterUnits="userSpaceOnUse" color-interpolation-filters="sRGB">
<feFlood flood-opacity="0" result="BackgroundImageFix"/>
<feColorMatrix in="SourceAlpha" type="matrix" values="0 0 0 0 0 0 0 0 0 0 0 0 0 0 0 0 0 0 127 0" result="hardAlpha"/>
<feOffset dx="5.68078" dy="5.68078"/>
<feComposite in2="hardAlpha" operator="out"/>
<feColorMatrix type="matrix" values="0 0 0 0 0 0 0 0 0 0 0 0 0 0 0 0 0 0 1 0"/>
<feBlend mode="normal" in2="BackgroundImageFix" result="effect1_dropShadow_8_102"/>
<feBlend mode="normal" in="SourceGraphic" in2="effect1_dropShadow_8_102" result="shape"/>
</filter>
<filter id="filter3_d_8_102" x="122.163" y="153.206" width="115.16" height="209.865" filterUnits="userSpaceOnUse" color-interpolation-filters="sRGB">
<feFlood flood-opacity="0" result="BackgroundImageFix"/>
<feColorMatrix in="SourceAlpha" type="matrix" values="0 0 0 0 0 0 0 0 0 0 0 0 0 0 0 0 0 0 127 0" result="hardAlpha"/>
<feOffset dx="10.55" dy="8.92694"/>
<feComposite in2="hardAlpha" operator="out"/>
<feColorMatrix type="matrix" values="0 0 0 0 0 0 0 0 0 0 0 0 0 0 0 0 0 0 1 0"/>
<feBlend mode="normal" in2="BackgroundImageFix" result="effect1_dropShadow_8_102"/>
<feBlend mode="normal" in="SourceGraphic" in2="effect1_dropShadow_8_102" result="shape"/>
</filter>
<filter id="filter4_d_8_102" x="445.61" y="138.421" width="135.931" height="207.764" filterUnits="userSpaceOnUse" color-interpolation-filters="sRGB">
<feFlood flood-opacity="0" result="BackgroundImageFix"/>
<feColorMatrix in="SourceAlpha" type="matrix" values="0 0 0 0 0 0 0 0 0 0 0 0 0 0 0 0 0 0 127 0" result="hardAlpha"/>
<feOffset dx="10.55" dy="8.92694"/>
<feComposite in2="hardAlpha" operator="out"/>
<feColorMatrix type="matrix" values="0 0 0 0 0 0 0 0 0 0 0 0 0 0 0 0 0 0 1 0"/>
<feBlend mode="normal" in2="BackgroundImageFix" result="effect1_dropShadow_8_102"/>
<feBlend mode="normal" in="SourceGraphic" in2="effect1_dropShadow_8_102" result="shape"/>
</filter>
<filter id="filter5_d_8_102" x="575.242" y="138.856" width="106.931" height="207.469" filterUnits="userSpaceOnUse" color-interpolation-filters="sRGB">
<feFlood flood-opacity="0" result="BackgroundImageFix"/>
<feColorMatrix in="SourceAlpha" type="matrix" values="0 0 0 0 0 0 0 0 0 0 0 0 0 0 0 0 0 0 127 0" result="hardAlpha"/>
<feOffset dx="10.55" dy="8.92694"/>
<feComposite in2="hardAlpha" operator="out"/>
<feColorMatrix type="matrix" values="0 0 0 0 0 0 0 0 0 0 0 0 0 0 0 0 0 0 1 0"/>
<feBlend mode="normal" in2="BackgroundImageFix" result="effect1_dropShadow_8_102"/>
<feBlend mode="normal" in="SourceGraphic" in2="effect1_dropShadow_8_102" result="shape"/>
</filter>
<filter id="filter6_d_8_102" x="675.302" y="140.319" width="152.241" height="212.262" filterUnits="userSpaceOnUse" color-interpolation-filters="sRGB">
<feFlood flood-opacity="0" result="BackgroundImageFix"/>
<feColorMatrix in="SourceAlpha" type="matrix" values="0 0 0 0 0 0 0 0 0 0 0 0 0 0 0 0 0 0 127 0" result="hardAlpha"/>
<feOffset dx="10.55" dy="8.92694"/>
<feComposite in2="hardAlpha" operator="out"/>
<feColorMatrix type="matrix" values="0 0 0 0 0 0 0 0 0 0 0 0 0 0 0 0 0 0 1 0"/>
<feBlend mode="normal" in2="BackgroundImageFix" result="effect1_dropShadow_8_102"/>
<feBlend mode="normal" in="SourceGraphic" in2="effect1_dropShadow_8_102" result="shape"/>
</filter>
<filter id="filter7_d_8_102" x="821.27" y="147.301" width="137.648" height="212.877" filterUnits="userSpaceOnUse" color-interpolation-filters="sRGB">
<feFlood flood-opacity="0" result="BackgroundImageFix"/>
<feColorMatrix in="SourceAlpha" type="matrix" values="0 0 0 0 0 0 0 0 0 0 0 0 0 0 0 0 0 0 127 0" result="hardAlpha"/>
<feOffset dx="10.55" dy="8.92694"/>
<feComposite in2="hardAlpha" operator="out"/>
<feColorMatrix type="matrix" values="0 0 0 0 0 0 0 0 0 0 0 0 0 0 0 0 0 0 1 0"/>
<feBlend mode="normal" in2="BackgroundImageFix" result="effect1_dropShadow_8_102"/>
<feBlend mode="normal" in="SourceGraphic" in2="effect1_dropShadow_8_102" result="shape"/>
</filter>
<filter id="filter8_d_8_102" x="250.652" y="136.533" width="222.44" height="221.249" filterUnits="userSpaceOnUse" color-interpolation-filters="sRGB">
<feFlood flood-opacity="0" result="BackgroundImageFix"/>
<feColorMatrix in="SourceAlpha" type="matrix" values="0 0 0 0 0 0 0 0 0 0 0 0 0 0 0 0 0 0 127 0" result="hardAlpha"/>
<feOffset dx="9" dy="9"/>
<feComposite in2="hardAlpha" operator="out"/>
<feColorMatrix type="matrix" values="0 0 0 0 0 0 0 0 0 0 0 0 0 0 0 0 0 0 1 0"/>
<feBlend mode="normal" in2="BackgroundImageFix" result="effect1_dropShadow_8_102"/>
<feBlend mode="normal" in="SourceGraphic" in2="effect1_dropShadow_8_102" result="shape"/>
</filter>
<linearGradient id="paint0_linear_8_102" x1="77.8225" y1="103.863" x2="34.1878" y2="356.009" gradientUnits="userSpaceOnUse">
<stop stop-color="#FFF7B3"/>
<stop offset="0.255" stop-color="#FEFFEB"/>
<stop offset="0.495" stop-color="#F4DD6A"/>
<stop offset="0.73" stop-color="#FFFEC2"/>
<stop offset="1" stop-color="#FFB726"/>
</linearGradient>
<linearGradient id="paint1_linear_8_102" x1="991.629" y1="102.238" x2="956.623" y2="357.072" gradientUnits="userSpaceOnUse">
<stop stop-color="#FFF7B3"/>
<stop offset="0.255" stop-color="#FEFFEB"/>
<stop offset="0.495" stop-color="#F4DD6A"/>
<stop offset="0.73" stop-color="#FFFEC2"/>
<stop offset="1" stop-color="#FFB726"/>
</linearGradient>
<linearGradient id="paint2_linear_8_102" x1="377.293" y1="14.8704" x2="392.474" y2="118.306" gradientUnits="userSpaceOnUse">
<stop stop-color="#FFF7B3"/>
<stop offset="0.255" stop-color="#FEFFEB"/>
<stop offset="0.495" stop-color="#F4DD6A"/>
<stop offset="0.73" stop-color="#FFFEC2"/>
<stop offset="1" stop-color="#FFB726"/>
</linearGradient>
<linearGradient id="paint3_linear_8_102" x1="449.726" y1="9.45346" x2="462.562" y2="113.272" gradientUnits="userSpaceOnUse">
<stop stop-color="#FFF7B3"/>
<stop offset="0.255" stop-color="#FEFFEB"/>
<stop offset="0.495" stop-color="#F4DD6A"/>
<stop offset="0.73" stop-color="#FFFEC2"/>
<stop offset="1" stop-color="#FFB726"/>
</linearGradient>
<linearGradient id="paint4_linear_8_102" x1="520.329" y1="5.76545" x2="531.213" y2="109.836" gradientUnits="userSpaceOnUse">
<stop stop-color="#FFF7B3"/>
<stop offset="0.255" stop-color="#FEFFEB"/>
<stop offset="0.495" stop-color="#F4DD6A"/>
<stop offset="0.73" stop-color="#FFFEC2"/>
<stop offset="1" stop-color="#FFB726"/>
</linearGradient>
<linearGradient id="paint5_linear_8_102" x1="582.315" y1="3.82261" x2="592.835" y2="107.843" gradientUnits="userSpaceOnUse">
<stop stop-color="#FFF7B3"/>
<stop offset="0.255" stop-color="#FEFFEB"/>
<stop offset="0.495" stop-color="#F4DD6A"/>
<stop offset="0.73" stop-color="#FFFEC2"/>
<stop offset="1" stop-color="#FFB726"/>
</linearGradient>
<linearGradient id="paint6_linear_8_102" x1="624.484" y1="3.19118" x2="641.541" y2="105.379" gradientUnits="userSpaceOnUse">
<stop stop-color="#FFF7B3"/>
<stop offset="0.255" stop-color="#FEFFEB"/>
<stop offset="0.495" stop-color="#F4DD6A"/>
<stop offset="0.73" stop-color="#FFFEC2"/>
<stop offset="1" stop-color="#FFB726"/>
</linearGradient>
<linearGradient id="paint7_linear_8_102" x1="672.851" y1="3.14486" x2="679.018" y2="107.337" gradientUnits="userSpaceOnUse">
<stop stop-color="#FFF7B3"/>
<stop offset="0.255" stop-color="#FEFFEB"/>
<stop offset="0.495" stop-color="#F4DD6A"/>
<stop offset="0.73" stop-color="#FFFEC2"/>
<stop offset="1" stop-color="#FFB726"/>
</linearGradient>
<linearGradient id="paint8_linear_8_102" x1="784.416" y1="5.87204" x2="786.299" y2="110.624" gradientUnits="userSpaceOnUse">
<stop stop-color="#FFF7B3"/>
<stop offset="0.255" stop-color="#FEFFEB"/>
<stop offset="0.495" stop-color="#F4DD6A"/>
<stop offset="0.73" stop-color="#FFFEC2"/>
<stop offset="1" stop-color="#FFB726"/>
</linearGradient>
<linearGradient id="paint9_linear_8_102" x1="856.923" y1="9.73846" x2="856.417" y2="114.51" gradientUnits="userSpaceOnUse">
<stop stop-color="#FFF7B3"/>
<stop offset="0.255" stop-color="#FEFFEB"/>
<stop offset="0.495" stop-color="#F4DD6A"/>
<stop offset="0.73" stop-color="#FFFEC2"/>
<stop offset="1" stop-color="#FFB726"/>
</linearGradient>
<linearGradient id="paint10_linear_8_102" x1="928.212" y1="15.157" x2="925.562" y2="119.879" gradientUnits="userSpaceOnUse">
<stop stop-color="#FFF7B3"/>
<stop offset="0.255" stop-color="#FEFFEB"/>
<stop offset="0.495" stop-color="#F4DD6A"/>
<stop offset="0.73" stop-color="#FFFEC2"/>
<stop offset="1" stop-color="#FFB726"/>
</linearGradient>
<linearGradient id="paint11_linear_8_102" x1="157.846" y1="159.062" x2="147.524" y2="345.667" gradientUnits="userSpaceOnUse">
<stop stop-color="#FFF7B3"/>
<stop offset="0.129" stop-color="#FFF6CC"/>
<stop offset="0.254" stop-color="#F4DD6A"/>
<stop offset="0.449" stop-color="#FFFEC2"/>
<stop offset="1" stop-color="#FFB726"/>
</linearGradient>
<linearGradient id="paint12_linear_8_102" x1="502.345" y1="142.831" x2="485.056" y2="333.19" gradientUnits="userSpaceOnUse">
<stop stop-color="#FFF7B3"/>
<stop offset="0.129" stop-color="#FFF6CC"/>
<stop offset="0.254" stop-color="#F4DD6A"/>
<stop offset="0.449" stop-color="#FFFEC2"/>
<stop offset="1" stop-color="#FFB726"/>
</linearGradient>
<linearGradient id="paint13_linear_8_102" x1="617.582" y1="148.106" x2="591.418" y2="336.814" gradientUnits="userSpaceOnUse">
<stop stop-color="#FFF7B3"/>
<stop offset="0.129" stop-color="#FFF6CC"/>
<stop offset="0.254" stop-color="#F4DD6A"/>
<stop offset="0.449" stop-color="#FFFEC2"/>
<stop offset="1" stop-color="#FFB726"/>
</linearGradient>
<linearGradient id="paint14_linear_8_102" x1="736.883" y1="141.208" x2="719.075" y2="330.652" gradientUnits="userSpaceOnUse">
<stop stop-color="#FFF7B3"/>
<stop offset="0.129" stop-color="#FFF6CC"/>
<stop offset="0.254" stop-color="#F4DD6A"/>
<stop offset="0.449" stop-color="#FFFEC2"/>
<stop offset="1" stop-color="#FFB726"/>
</linearGradient>
<linearGradient id="paint15_linear_8_102" x1="877.678" y1="160.28" x2="846.165" y2="322.148" gradientUnits="userSpaceOnUse">
<stop stop-color="#FFF7B3"/>
<stop offset="0.129" stop-color="#FFF6CC"/>
<stop offset="0.254" stop-color="#F4DD6A"/>
<stop offset="0.449" stop-color="#FFFEC2"/>
<stop offset="1" stop-color="#FFB726"/>
</linearGradient>
<linearGradient id="paint16_linear_8_102" x1="346.438" y1="143.393" x2="362.311" y2="287.736" gradientUnits="userSpaceOnUse">
<stop stop-color="#FFF7B3"/>
<stop offset="0.255" stop-color="#FEFFEB"/>
<stop offset="0.495" stop-color="#F4DD6A"/>
<stop offset="0.73" stop-color="#FFFEC2"/>
<stop offset="1" stop-color="#FFB726"/>
</linearGradient>
<linearGradient id="paint17_linear_8_102" x1="346.438" y1="143.393" x2="362.311" y2="287.736" gradientUnits="userSpaceOnUse">
<stop stop-color="#FFF7B3"/>
<stop offset="0.255" stop-color="#FEFFEB"/>
<stop offset="0.495" stop-color="#F4DD6A"/>
<stop offset="0.73" stop-color="#FFFEC2"/>
<stop offset="1" stop-color="#FFB726"/>
</linearGradient>
<linearGradient id="paint18_linear_8_102" x1="346.438" y1="143.393" x2="362.311" y2="287.736" gradientUnits="userSpaceOnUse">
<stop stop-color="#FFF7B3"/>
<stop offset="0.255" stop-color="#FEFFEB"/>
<stop offset="0.495" stop-color="#F4DD6A"/>
<stop offset="0.73" stop-color="#FFFEC2"/>
<stop offset="1" stop-color="#FFB726"/>
</linearGradient>
<linearGradient id="paint19_linear_8_102" x1="346.438" y1="143.393" x2="362.311" y2="287.736" gradientUnits="userSpaceOnUse">
<stop stop-color="#FFF7B3"/>
<stop offset="0.255" stop-color="#FEFFEB"/>
<stop offset="0.495" stop-color="#F4DD6A"/>
<stop offset="0.73" stop-color="#FFFEC2"/>
<stop offset="1" stop-color="#FFB726"/>
</linearGradient>
<linearGradient id="paint20_linear_8_102" x1="346.438" y1="143.393" x2="362.311" y2="287.736" gradientUnits="userSpaceOnUse">
<stop stop-color="#FFF7B3"/>
<stop offset="0.255" stop-color="#FEFFEB"/>
<stop offset="0.495" stop-color="#F4DD6A"/>
<stop offset="0.73" stop-color="#FFFEC2"/>
<stop offset="1" stop-color="#FFB726"/>
</linearGradient>
<linearGradient id="paint21_linear_8_102" x1="346.438" y1="143.393" x2="362.311" y2="287.736" gradientUnits="userSpaceOnUse">
<stop stop-color="#FFF7B3"/>
<stop offset="0.255" stop-color="#FEFFEB"/>
<stop offset="0.495" stop-color="#F4DD6A"/>
<stop offset="0.73" stop-color="#FFFEC2"/>
<stop offset="1" stop-color="#FFB726"/>
</linearGradient>
<linearGradient id="paint22_linear_8_102" x1="346.438" y1="143.393" x2="362.311" y2="287.736" gradientUnits="userSpaceOnUse">
<stop stop-color="#FFF7B3"/>
<stop offset="0.255" stop-color="#FEFFEB"/>
<stop offset="0.495" stop-color="#F4DD6A"/>
<stop offset="0.73" stop-color="#FFFEC2"/>
<stop offset="1" stop-color="#FFB726"/>
</linearGradient>
<linearGradient id="paint23_linear_8_102" x1="346.438" y1="143.393" x2="362.311" y2="287.736" gradientUnits="userSpaceOnUse">
<stop stop-color="#FFF7B3"/>
<stop offset="0.255" stop-color="#FEFFEB"/>
<stop offset="0.495" stop-color="#F4DD6A"/>
<stop offset="0.73" stop-color="#FFFEC2"/>
<stop offset="1" stop-color="#FFB726"/>
</linearGradient>
<linearGradient id="paint24_linear_8_102" x1="346.438" y1="143.393" x2="362.311" y2="287.736" gradientUnits="userSpaceOnUse">
<stop stop-color="#FFF7B3"/>
<stop offset="0.255" stop-color="#FEFFEB"/>
<stop offset="0.495" stop-color="#F4DD6A"/>
<stop offset="0.73" stop-color="#FFFEC2"/>
<stop offset="1" stop-color="#FFB726"/>
</linearGradient>
</defs>
</svg>
