<svg width="372" height="237" viewBox="0 0 372 237" fill="none" xmlns="http://www.w3.org/2000/svg">
<rect width="372" height="237" rx="20" fill="#1E1E1E"/>
<path d="M161.872 114.675C158.629 114.675 156 112.046 156 108.803V58.8717C156 55.6288 158.629 53 161.872 53H181.992C188.57 53 194.356 54.2922 199.349 56.8767C204.4 59.4612 208.306 63.0736 211.067 67.7139C213.887 72.3542 215.296 77.7288 215.296 83.8376C215.296 89.9464 213.887 95.3209 211.067 99.9612C208.306 104.602 204.4 108.214 199.349 110.798C194.356 113.383 188.57 114.675 181.992 114.675H161.872ZM164.811 101.138C164.811 104.381 167.44 107.01 170.682 107.01H181.463C186.573 107.01 190.979 106.041 194.679 104.102C198.438 102.164 201.346 99.4619 203.402 95.9964C205.458 92.4721 206.486 88.4192 206.486 83.8376C206.486 79.1973 205.458 75.1443 203.402 71.6788C201.346 68.2132 198.438 65.5112 194.679 63.5729C190.979 61.6345 186.573 60.6653 181.463 60.6653H170.682C167.44 60.6653 164.811 63.2942 164.811 66.537V101.138Z" fill="white"/>
<g filter="url(#filter0_d_35_43)">
<path fill-rule="evenodd" clip-rule="evenodd" d="M189.07 66.207C200.773 66.207 210.261 75.6948 210.261 87.3985C210.261 99.1022 200.773 108.59 189.07 108.59C177.366 108.59 167.878 99.1022 167.878 87.3985C167.878 75.6948 177.366 66.207 189.07 66.207ZM204.923 87.3985C204.923 78.6428 197.825 71.5449 189.07 71.5449C180.314 71.5449 173.216 78.6428 173.216 87.3985C173.216 96.1542 180.314 103.252 189.07 103.252C197.825 103.252 204.923 96.1542 204.923 87.3985Z" fill="white"/>
<path d="M201.095 103.633C200.261 102.799 200.261 101.447 201.095 100.613L202.605 99.1037C203.439 98.2698 204.791 98.2698 205.624 99.1037L216.388 109.867C217.222 110.701 217.222 112.053 216.388 112.887L214.878 114.397C214.045 115.231 212.693 115.231 211.859 114.397L201.095 103.633Z" fill="white"/>
</g>
<g opacity="0.71" filter="url(#filter1_f_35_43)">
<path d="M176.686 82.4342C178.376 79.5517 183.454 73.7655 190.244 73.6801" stroke="white" stroke-width="1.38785" stroke-linecap="round"/>
<path d="M177.54 90.708C178.18 84.8363 183.07 74.0217 197.504 77.7369" stroke="white" stroke-width="1.38785" stroke-linecap="round"/>
<path d="M202.254 91.3485C200.333 93.1634 195.497 95.5548 191.525 90.6012" stroke="white" stroke-width="1.38785" stroke-linecap="round"/>
<path d="M193.927 99.9959C189.728 98.8927 182.13 94.8181 185.333 87.3451C187.006 84.7295 191.781 80.9503 197.504 86.7579" stroke="white" stroke-width="1.38785" stroke-linecap="round"/>
<path d="M186.241 100.53C183.038 98.2166 177.839 91.8716 182.664 84.9964C187.49 78.1212 194.568 79.8542 197.504 81.5802C200.03 83.3239 203.664 87.4732 197.984 90.1208C197.201 90.2809 195.294 90.0994 193.927 88.0924C192.561 86.0853 190.369 87.2561 189.443 88.0924C188.874 88.6618 188.109 89.8005 188.269 91.1884C188.429 92.5762 192.006 98.8749 200.066 96.4195" stroke="white" stroke-width="1.38785" stroke-linecap="round"/>
</g>
<path d="M176.686 82.4342C178.376 79.5517 183.454 73.7655 190.244 73.6801" stroke="white" stroke-width="1.38785" stroke-linecap="round"/>
<path d="M177.54 90.708C178.18 84.8363 183.07 74.0217 197.504 77.7369" stroke="white" stroke-width="1.38785" stroke-linecap="round"/>
<path d="M202.254 91.3485C200.333 93.1634 195.497 95.5548 191.525 90.6012" stroke="white" stroke-width="1.38785" stroke-linecap="round"/>
<rect fill="white" x="343.466" y="8.54269" width="0" height="0" viewBox="101 110 101 011"/>
<path d="M193.927 99.9959C189.728 98.8927 182.13 94.8181 185.333 87.3451C187.006 84.7295 191.781 80.9503 197.504 86.7579" stroke="white" stroke-width="1.38785" stroke-linecap="round"/>
<path d="M186.241 100.53C183.038 98.2166 177.839 91.8716 182.664 84.9964C187.49 78.1212 194.568 79.8542 197.504 81.5802C200.03 83.3239 203.664 87.4732 197.984 90.1208C197.201 90.2809 195.294 90.0994 193.927 88.0924C192.561 86.0853 190.369 87.2561 189.443 88.0924C188.874 88.6618 188.109 89.8005 188.269 91.1884C188.429 92.5762 192.006 98.8749 200.066 96.4195" stroke="white" stroke-width="1.38785" stroke-linecap="round"/>
<path d="M62.5844 181V144.506H74.6797C77.1995 144.506 79.5543 144.984 81.7439 145.939C83.951 146.878 85.8886 148.19 87.5569 149.876C89.2426 151.544 90.5547 153.482 91.4931 155.689C92.4489 157.878 92.9268 160.233 92.9268 162.753C92.9268 165.273 92.4489 167.636 91.4931 169.843C90.5547 172.033 89.2426 173.971 87.5569 175.656C85.8886 177.325 83.951 178.637 81.7439 179.592C79.5543 180.531 77.1995 181 74.6797 181H62.5844ZM68.9449 174.64H74.6797C76.2959 174.64 77.8164 174.335 79.2415 173.727C80.6839 173.102 81.9525 172.25 83.0473 171.173C84.1421 170.078 85.0023 168.818 85.628 167.393C86.2536 165.95 86.5664 164.404 86.5664 162.753C86.5664 161.102 86.2536 159.564 85.628 158.139C85.0023 156.714 84.1421 155.454 83.0473 154.359C81.9525 153.264 80.6925 152.413 79.2675 151.805C77.8425 151.179 76.3132 150.866 74.6797 150.866H68.9449V174.64ZM108.267 181.678C105.869 181.678 103.68 181.061 101.698 179.827C99.7347 178.593 98.162 176.933 96.9803 174.848C95.8159 172.763 95.2338 170.46 95.2338 167.94C95.2338 166.046 95.5726 164.273 96.2504 162.623C96.9281 160.954 97.8579 159.494 99.0396 158.243C100.239 156.975 101.629 155.984 103.21 155.272C104.792 154.559 106.477 154.203 108.267 154.203C110.301 154.203 112.16 154.637 113.846 155.506C115.549 156.358 116.991 157.531 118.173 159.025C119.355 160.52 120.215 162.223 120.754 164.134C121.292 166.046 121.414 168.045 121.119 170.13H102.063C102.307 171.103 102.706 171.981 103.263 172.763C103.819 173.527 104.522 174.144 105.374 174.614C106.225 175.065 107.19 175.3 108.267 175.317C109.38 175.335 110.388 175.074 111.291 174.535C112.212 173.979 112.977 173.232 113.585 172.294L120.076 173.805C119.016 176.117 117.434 178.011 115.332 179.488C113.229 180.948 110.874 181.678 108.267 181.678ZM101.855 165.36H114.68C114.489 164.317 114.08 163.378 113.455 162.544C112.847 161.693 112.091 161.015 111.187 160.511C110.283 160.007 109.31 159.755 108.267 159.755C107.225 159.755 106.26 160.007 105.374 160.511C104.488 160.998 103.732 161.667 103.106 162.518C102.498 163.352 102.081 164.3 101.855 165.36ZM136.931 181.678C134.533 181.678 132.343 181.061 130.362 179.827C128.399 178.593 126.826 176.933 125.644 174.848C124.48 172.763 123.898 170.46 123.898 167.94C123.898 166.046 124.237 164.273 124.914 162.623C125.592 160.954 126.522 159.494 127.703 158.243C128.903 156.975 130.293 155.984 131.874 155.272C133.456 154.559 135.141 154.203 136.931 154.203C138.965 154.203 140.824 154.637 142.51 155.506C144.213 156.358 145.655 157.531 146.837 159.025C148.019 160.52 148.879 162.223 149.418 164.134C149.956 166.046 150.078 168.045 149.783 170.13H130.727C130.971 171.103 131.37 171.981 131.926 172.763C132.482 173.527 133.186 174.144 134.038 174.614C134.889 175.065 135.854 175.3 136.931 175.317C138.044 175.335 139.051 175.074 139.955 174.535C140.876 173.979 141.641 173.232 142.249 172.294L148.74 173.805C147.68 176.117 146.098 178.011 143.996 179.488C141.893 180.948 139.538 181.678 136.931 181.678ZM130.519 165.36H143.344C143.153 164.317 142.744 163.378 142.119 162.544C141.51 161.693 140.755 161.015 139.851 160.511C138.947 160.007 137.974 159.755 136.931 159.755C135.889 159.755 134.924 160.007 134.038 160.511C133.152 160.998 132.396 161.667 131.77 162.518C131.162 163.352 130.745 164.3 130.519 165.36ZM160.384 194.034H154.024V154.933H160.384V158.243C161.236 157.062 162.278 156.106 163.512 155.376C164.763 154.629 166.223 154.255 167.892 154.255C169.803 154.255 171.584 154.611 173.235 155.324C174.886 156.036 176.337 157.027 177.589 158.295C178.857 159.547 179.839 160.998 180.534 162.649C181.247 164.3 181.603 166.072 181.603 167.966C181.603 169.861 181.247 171.642 180.534 173.31C179.839 174.978 178.857 176.447 177.589 177.716C176.337 178.967 174.886 179.949 173.235 180.661C171.584 181.374 169.803 181.73 167.892 181.73C166.223 181.73 164.763 181.365 163.512 180.635C162.278 179.888 161.236 178.923 160.384 177.742V194.034ZM167.813 160.381C166.493 160.381 165.311 160.728 164.268 161.423C163.226 162.101 162.409 163.014 161.818 164.161C161.227 165.307 160.932 166.576 160.932 167.966C160.932 169.357 161.227 170.634 161.818 171.798C162.409 172.945 163.226 173.866 164.268 174.561C165.311 175.239 166.493 175.578 167.813 175.578C169.151 175.578 170.377 175.239 171.489 174.561C172.601 173.884 173.487 172.971 174.148 171.824C174.808 170.66 175.138 169.374 175.138 167.966C175.138 166.576 174.808 165.307 174.148 164.161C173.487 163.014 172.601 162.101 171.489 161.423C170.394 160.728 169.169 160.381 167.813 160.381ZM210.115 144.506V150.866H198.959V181H192.598V150.866H181.441V144.506H210.115ZM211.938 181L211.912 154.933H218.272L218.298 157.253C219.184 156.314 220.244 155.576 221.478 155.037C222.712 154.481 224.042 154.203 225.467 154.203C226.422 154.203 227.378 154.342 228.334 154.62L225.831 161.032C225.171 160.772 224.511 160.641 223.85 160.641C222.825 160.641 221.887 160.893 221.035 161.397C220.201 161.884 219.532 162.553 219.028 163.405C218.541 164.239 218.298 165.168 218.298 166.194V181H211.938ZM249.691 154.933H256.052V181H249.691L249.404 177.768C248.692 178.932 247.745 179.879 246.563 180.609C245.399 181.321 244.017 181.678 242.418 181.678C240.489 181.678 238.682 181.313 236.996 180.583C235.311 179.853 233.825 178.845 232.539 177.559C231.27 176.273 230.271 174.787 229.541 173.102C228.829 171.416 228.472 169.609 228.472 167.68C228.472 165.82 228.811 164.074 229.489 162.44C230.184 160.807 231.149 159.373 232.383 158.139C233.616 156.905 235.041 155.941 236.658 155.245C238.274 154.55 240.012 154.203 241.871 154.203C243.591 154.203 245.129 154.585 246.485 155.35C247.858 156.114 249.022 157.088 249.978 158.269L249.691 154.933ZM242.262 175.552C243.618 175.552 244.817 175.213 245.859 174.535C246.902 173.858 247.719 172.945 248.31 171.798C248.901 170.634 249.196 169.357 249.196 167.966C249.196 166.559 248.901 165.281 248.31 164.134C247.719 162.97 246.893 162.049 245.833 161.371C244.791 160.694 243.6 160.355 242.262 160.355C240.924 160.355 239.699 160.702 238.587 161.397C237.492 162.075 236.614 162.987 235.954 164.134C235.311 165.281 234.989 166.559 234.989 167.966C234.989 169.374 235.319 170.651 235.98 171.798C236.64 172.945 237.518 173.858 238.613 174.535C239.725 175.213 240.941 175.552 242.262 175.552ZM276.899 173.154L282.633 176.256C281.434 177.889 279.931 179.201 278.124 180.192C276.316 181.182 274.344 181.678 272.206 181.678C269.808 181.678 267.619 181.061 265.638 179.827C263.674 178.593 262.101 176.942 260.919 174.874C259.755 172.789 259.173 170.486 259.173 167.966C259.173 166.055 259.512 164.273 260.189 162.623C260.867 160.954 261.797 159.494 262.979 158.243C264.178 156.975 265.568 155.984 267.149 155.272C268.731 154.559 270.417 154.203 272.206 154.203C274.344 154.203 276.316 154.698 278.124 155.689C279.931 156.679 281.434 158.009 282.633 159.677L276.899 162.753C276.29 162.058 275.569 161.519 274.735 161.137C273.918 160.754 273.075 160.563 272.206 160.563C270.955 160.563 269.826 160.911 268.818 161.606C267.81 162.284 267.01 163.187 266.42 164.317C265.829 165.429 265.533 166.646 265.533 167.966C265.533 169.27 265.829 170.486 266.42 171.616C267.01 172.728 267.81 173.623 268.818 174.301C269.826 174.978 270.955 175.317 272.206 175.317C273.11 175.317 273.97 175.126 274.787 174.744C275.604 174.344 276.308 173.814 276.899 173.154ZM297.968 181.678C295.57 181.678 293.38 181.061 291.399 179.827C289.436 178.593 287.863 176.933 286.681 174.848C285.517 172.763 284.935 170.46 284.935 167.94C284.935 166.046 285.274 164.273 285.951 162.623C286.629 160.954 287.559 159.494 288.741 158.243C289.94 156.975 291.33 155.984 292.911 155.272C294.493 154.559 296.178 154.203 297.968 154.203C300.002 154.203 301.861 154.637 303.547 155.506C305.25 156.358 306.692 157.531 307.874 159.025C309.056 160.52 309.916 162.223 310.455 164.134C310.993 166.046 311.115 168.045 310.82 170.13H291.764C292.008 171.103 292.407 171.981 292.963 172.763C293.52 173.527 294.223 174.144 295.075 174.614C295.926 175.065 296.891 175.3 297.968 175.317C299.081 175.335 300.088 175.074 300.992 174.535C301.913 173.979 302.678 173.232 303.286 172.294L309.777 173.805C308.717 176.117 307.135 178.011 305.033 179.488C302.93 180.948 300.575 181.678 297.968 181.678ZM291.556 165.36H304.381C304.19 164.317 303.781 163.378 303.156 162.544C302.548 161.693 301.792 161.015 300.888 160.511C299.984 160.007 299.011 159.755 297.968 159.755C296.926 159.755 295.961 160.007 295.075 160.511C294.189 160.998 293.433 161.667 292.807 162.518C292.199 163.352 291.782 164.3 291.556 165.36Z" fill="white"/>
<defs>
<filter id="filter0_d_35_43" x="160.405" y="59.4813" width="64.0814" height="63.7612" filterUnits="userSpaceOnUse" color-interpolation-filters="sRGB">
<feFlood flood-opacity="0" result="BackgroundImageFix"/>
<feColorMatrix in="SourceAlpha" type="matrix" values="0 0 0 0 0 0 0 0 0 0 0 0 0 0 0 0 0 0 127 0" result="hardAlpha"/>
<feOffset dy="0.747306"/>
<feGaussianBlur stdDeviation="3.73653"/>
<feComposite in2="hardAlpha" operator="out"/>
<feColorMatrix type="matrix" values="0 0 0 0 0 0 0 0 0 0 0 0 0 0 0 0 0 0 0.6 0"/>
<feBlend mode="normal" in2="BackgroundImageFix" result="effect1_dropShadow_35_43"/>
<feBlend mode="normal" in="SourceGraphic" in2="effect1_dropShadow_35_43" result="shape"/>
</filter>
<filter id="filter1_f_35_43" x="174.39" y="71.3847" width="30.1592" height="31.4403" filterUnits="userSpaceOnUse" color-interpolation-filters="sRGB">
<feFlood flood-opacity="0" result="BackgroundImageFix"/>
<feBlend mode="normal" in="SourceGraphic" in2="BackgroundImageFix" result="shape"/>
<feGaussianBlur stdDeviation="0.800685" result="effect1_foregroundBlur_35_43"/>
</filter>
</defs>
</svg>
